<?xml version="1.0" encoding="UTF-8" standalone="no"?>
<!DOCTYPE svg PUBLIC "-//W3C//DTD SVG 1.1//EN"
 "http://www.w3.org/Graphics/SVG/1.1/DTD/svg11.dtd">
<!-- Generated by graphviz version 14.1.2 (20260126.1125)
 -->
<!-- Pages: 1 -->
<svg width="1342pt" height="717pt"
 viewBox="0.00 0.00 1342.00 717.00" xmlns="http://www.w3.org/2000/svg" xmlns:xlink="http://www.w3.org/1999/xlink">
<g id="graph0" class="graph" transform="scale(1 1) rotate(0) translate(4 712.5)">
<polygon fill="white" stroke="none" points="-4,4 -4,-712.5 1338.29,-712.5 1338.29,4 -4,4"/>
<!-- BulkMagnet -->
<g id="node1" class="node">
<title>BulkMagnet</title>
<g id="a_node1"><a xlink:href="https://w3id.org/emmo/domain/magnetic-materials#EMMO_d28323da-810f-5cbe-a770-eab7e7fdb493" xlink:title="BulkMagnet">
<ellipse fill="#ffffcc" stroke="black" stroke-width="2" cx="428.43" cy="-565" rx="72.25" ry="18"/>
<text xml:space="preserve" text-anchor="middle" x="428.43" y="-560.33" font-family="Times,serif" font-size="14.00">BulkMagnet</text>
</a>
</g>
</g>
<!-- MaterialBySize -->
<g id="node2" class="node">
<title>MaterialBySize</title>
<g id="a_node2"><a xlink:href="https://w3id.org/emmo#EMMO_e4e80813_f379_4091_b017_ee059811f806" xlink:title="MaterialBySize">
<ellipse fill="#ffffcc" stroke="red" cx="914.58" cy="-578" rx="88.04" ry="18"/>
<text xml:space="preserve" text-anchor="middle" x="914.58" y="-573.33" font-family="Times,serif" font-size="14.00">MaterialBySize</text>
</a>
</g>
</g>
<!-- BulkMagnet&#45;&gt;MaterialBySize -->
<g id="edge1" class="edge">
<title>BulkMagnet&#45;&gt;MaterialBySize</title>
<path fill="none" stroke="black" d="M501.13,-566.93C584.39,-569.16 722.19,-572.86 815.37,-575.36"/>
<polygon fill="none" stroke="black" points="815.18,-578.86 825.27,-575.63 815.37,-571.86 815.18,-578.86"/>
<text xml:space="preserve" text-anchor="middle" x="680.71" y="-577.75" font-family="Times,serif" font-size="14.00">isA</text>
</g>
<!-- Magnet -->
<g id="node3" class="node">
<title>Magnet</title>
<g id="a_node3"><a xlink:href="https://w3id.org/emmo/domain/magnetic-materials#EMMO_099b796d-3163-56c7-bc90-3a304256ca5d" xlink:title="Magnet">
<ellipse fill="#ffffcc" stroke="red" cx="914.58" cy="-524" rx="49.63" ry="18"/>
<text xml:space="preserve" text-anchor="middle" x="914.58" y="-519.33" font-family="Times,serif" font-size="14.00">Magnet</text>
</a>
</g>
</g>
<!-- BulkMagnet&#45;&gt;Magnet -->
<g id="edge2" class="edge">
<title>BulkMagnet&#45;&gt;Magnet</title>
<path fill="none" stroke="black" d="M496.74,-558.45C528.73,-555.39 567.49,-551.77 602.34,-548.75 690.03,-541.14 791.71,-533.23 854.34,-528.46"/>
<polygon fill="none" stroke="black" points="854.36,-531.97 864.06,-527.72 853.83,-524.99 854.36,-531.97"/>
<text xml:space="preserve" text-anchor="middle" x="680.71" y="-552.7" font-family="Times,serif" font-size="14.00">isA</text>
</g>
<!-- ShapeAnisotropy -->
<g id="node4" class="node">
<title>ShapeAnisotropy</title>
<g id="a_node4"><a xlink:href="https://w3id.org/emmo/domain/magnetic-materials#EMMO_f8f03807-d6b6-5ebf-8e0b-418311e8e1e5" xlink:title="ShapeAnisotropy">
<ellipse fill="#ffffcc" stroke="red" cx="914.58" cy="-424" rx="96.45" ry="18"/>
<text xml:space="preserve" text-anchor="middle" x="914.58" y="-419.32" font-family="Times,serif" font-size="14.00">ShapeAnisotropy</text>
</a>
</g>
</g>
<!-- BulkMagnet&#45;&gt;ShapeAnisotropy -->
<g id="edge3" class="edge">
<title>BulkMagnet&#45;&gt;ShapeAnisotropy</title>
<path fill="none" stroke="orange" stroke-dasharray="1,5" d="M498.28,-570.69C529,-569.29 563,-561.58 584.34,-538 621.15,-497.32 562.15,-329.11 602.34,-291.75 627.85,-268.03 731.86,-270.02 759.09,-291.75 787.31,-314.28 753.49,-343.65 777.09,-371 791.86,-388.12 812.85,-399.75 833.95,-407.62"/>
<polygon fill="orange" stroke="orange" points="832.6,-410.86 843.2,-410.81 834.88,-404.24 832.6,-410.86"/>
<text xml:space="preserve" text-anchor="middle" x="680.71" y="-295.7" font-family="Times,serif" font-size="14.00">hasProperty exactly 1</text>
</g>
<!-- DemagnetizingFactor -->
<g id="node5" class="node">
<title>DemagnetizingFactor</title>
<g id="a_node5"><a xlink:href="https://w3id.org/emmo/domain/magnetic-materials#EMMO_0f2b5cc9-d00a-5030-8448-99ba6b7dfd1e" xlink:title="DemagnetizingFactor">
<ellipse fill="#ffffcc" stroke="red" cx="428.43" cy="-18" rx="119.08" ry="18"/>
<text xml:space="preserve" text-anchor="middle" x="428.43" y="-13.32" font-family="Times,serif" font-size="14.00">DemagnetizingFactor</text>
</a>
</g>
</g>
<!-- BulkMagnet&#45;&gt;DemagnetizingFactor -->
<g id="edge4" class="edge">
<title>BulkMagnet&#45;&gt;DemagnetizingFactor</title>
<path fill="none" stroke="orange" stroke-dasharray="1,5" d="M355.77,-563.67C328.07,-560.38 297.25,-553.13 272.53,-538 178.05,-480.16 157.99,-443.71 122.95,-338.62 76.63,-199.69 153.6,-130.47 272.53,-45 282.71,-37.69 294.21,-32.12 306.25,-27.91"/>
<polygon fill="orange" stroke="orange" points="307,-31.35 315.49,-25.01 304.9,-24.67 307,-31.35"/>
<text xml:space="preserve" text-anchor="middle" x="155.9" y="-325.32" font-family="Times,serif" font-size="14.00">hasProperty exactly 1</text>
</g>
<!-- SampleGeometry -->
<g id="node6" class="node">
<title>SampleGeometry</title>
<g id="a_node6"><a xlink:href="https://w3id.org/emmo/domain/magnetic-materials#EMMO_b7ebd85f-36aa-540a-b8a9-e2c1094f27f1" xlink:title="SampleGeometry">
<ellipse fill="#ffffcc" stroke="red" cx="914.58" cy="-344" rx="98.03" ry="18"/>
<text xml:space="preserve" text-anchor="middle" x="914.58" y="-339.32" font-family="Times,serif" font-size="14.00">SampleGeometry</text>
</a>
</g>
</g>
<!-- BulkMagnet&#45;&gt;SampleGeometry -->
<g id="edge5" class="edge">
<title>BulkMagnet&#45;&gt;SampleGeometry</title>
<path fill="none" stroke="orange" stroke-dasharray="1,5" d="M497.75,-570.95C528.73,-569.7 563.1,-562.04 584.34,-538 611.53,-507.21 572.59,-197.08 602.34,-168.75 627.56,-144.73 727.34,-154.41 759.09,-168.75 826.08,-199 875.64,-274.25 898.88,-315.62"/>
<polygon fill="orange" stroke="orange" points="895.75,-317.19 903.62,-324.28 901.89,-313.82 895.75,-317.19"/>
<text xml:space="preserve" text-anchor="middle" x="680.71" y="-172.7" font-family="Times,serif" font-size="14.00">hasProperty exactly 1</text>
</g>
<!-- Material -->
<g id="node11" class="node">
<title>Material</title>
<g id="a_node11"><a xlink:href="https://w3id.org/emmo#EMMO_4207e895_8b83_4318_996a_72cfb32acd94" xlink:title="Material">
<ellipse fill="#ffffcc" stroke="red" cx="1222.05" cy="-578" rx="53.84" ry="18"/>
<text xml:space="preserve" text-anchor="middle" x="1222.05" y="-573.33" font-family="Times,serif" font-size="14.00">Material</text>
</a>
</g>
</g>
<!-- MaterialBySize&#45;&gt;Material -->
<g id="edge10" class="edge">
<title>MaterialBySize&#45;&gt;Material</title>
<path fill="none" stroke="black" d="M1002.71,-578C1051.7,-578 1111.81,-578 1156.55,-578"/>
<polygon fill="none" stroke="black" points="1156.35,-581.5 1166.35,-578 1156.35,-574.5 1156.35,-581.5"/>
<text xml:space="preserve" text-anchor="middle" x="1080.94" y="-581.95" font-family="Times,serif" font-size="14.00">isA</text>
</g>
<!-- Referent -->
<g id="node7" class="node">
<title>Referent</title>
<g id="a_node7"><a xlink:href="https://w3id.org/emmo#EMMO_6f5af708_f825_4feb_a0d1_a8d813d3022b" xlink:title="Referent">
<ellipse fill="#ffffcc" stroke="red" cx="1222.05" cy="-458" rx="54.89" ry="18"/>
<text xml:space="preserve" text-anchor="middle" x="1222.05" y="-453.32" font-family="Times,serif" font-size="14.00">Referent</text>
</a>
</g>
</g>
<!-- Magnet&#45;&gt;Referent -->
<g id="edge11" class="edge">
<title>Magnet&#45;&gt;Referent</title>
<path fill="none" stroke="black" d="M958.05,-514.82C1011.8,-503.21 1104.56,-483.17 1164.33,-470.26"/>
<polygon fill="none" stroke="black" points="1164.94,-473.7 1173.98,-468.17 1163.46,-466.86 1164.94,-473.7"/>
<text xml:space="preserve" text-anchor="middle" x="1080.94" y="-492.97" font-family="Times,serif" font-size="14.00">isA</text>
</g>
<!-- MaterialByFunction -->
<g id="node12" class="node">
<title>MaterialByFunction</title>
<g id="a_node12"><a xlink:href="https://w3id.org/emmo#EMMO_8820f251_ad36_43f4_a693_c0e86a89cc1f" xlink:title="MaterialByFunction">
<ellipse fill="#ffffcc" stroke="red" cx="1222.05" cy="-524" rx="111.18" ry="18"/>
<text xml:space="preserve" text-anchor="middle" x="1222.05" y="-519.33" font-family="Times,serif" font-size="14.00">MaterialByFunction</text>
</a>
</g>
</g>
<!-- Magnet&#45;&gt;MaterialByFunction -->
<g id="edge12" class="edge">
<title>Magnet&#45;&gt;MaterialByFunction</title>
<path fill="none" stroke="black" d="M964.66,-524C1001.04,-524 1052.27,-524 1099.39,-524"/>
<polygon fill="none" stroke="black" points="1099.12,-527.5 1109.12,-524 1099.12,-520.5 1099.12,-527.5"/>
<text xml:space="preserve" text-anchor="middle" x="1080.94" y="-527.95" font-family="Times,serif" font-size="14.00">isA</text>
</g>
<!-- XrayDiffractionData -->
<g id="node13" class="node">
<title>XrayDiffractionData</title>
<g id="a_node13"><a xlink:href="https://w3id.org/emmo/domain/magnetic-materials#EMMO_38684bd3-8137-5af1-9c0d-b32bcf58fefc" xlink:title="XrayDiffractionData">
<ellipse fill="#ffffcc" stroke="red" cx="428.43" cy="-511" rx="111.18" ry="18"/>
<text xml:space="preserve" text-anchor="middle" x="428.43" y="-506.32" font-family="Times,serif" font-size="14.00">XrayDiffractionData</text>
</a>
</g>
</g>
<!-- Magnet&#45;&gt;XrayDiffractionData -->
<g id="edge13" class="edge">
<title>Magnet&#45;&gt;XrayDiffractionData</title>
<path fill="none" stroke="orange" stroke-dasharray="1,5" d="M873.92,-513.37C842.92,-505.64 798.61,-495.83 759.09,-491.75 679.84,-483.57 589.5,-489.94 523.45,-497.48"/>
<polygon fill="orange" stroke="orange" points="523.26,-493.97 513.74,-498.62 524.08,-500.93 523.26,-493.97"/>
<text xml:space="preserve" text-anchor="middle" x="680.71" y="-495.7" font-family="Times,serif" font-size="14.00">hasProperty min 0</text>
</g>
<!-- ExtrinsicMagneticProperties -->
<g id="node14" class="node">
<title>ExtrinsicMagneticProperties</title>
<g id="a_node14"><a xlink:href="https://w3id.org/emmo/domain/magnetic-materials#EMMO_8a0c8d0a-3dc7-5f3f-ab20-24b38d188827" xlink:title="ExtrinsicMagneticProperties">
<ellipse fill="#ffffcc" stroke="red" cx="428.43" cy="-457" rx="155.9" ry="18"/>
<text xml:space="preserve" text-anchor="middle" x="428.43" y="-452.32" font-family="Times,serif" font-size="14.00">ExtrinsicMagneticProperties</text>
</a>
</g>
</g>
<!-- Magnet&#45;&gt;ExtrinsicMagneticProperties -->
<g id="edge14" class="edge">
<title>Magnet&#45;&gt;ExtrinsicMagneticProperties</title>
<path fill="none" stroke="orange" stroke-dasharray="1,5" d="M883.65,-509.57C853.13,-495.67 804.01,-475.49 759.09,-466.75 703.88,-456 642.5,-452.07 587.82,-451.3"/>
<polygon fill="orange" stroke="orange" points="588.16,-447.81 578.13,-451.2 588.09,-454.8 588.16,-447.81"/>
<text xml:space="preserve" text-anchor="middle" x="680.71" y="-470.7" font-family="Times,serif" font-size="14.00">hasProperty exactly 1</text>
</g>
<!-- GranularMicrostructure -->
<g id="node15" class="node">
<title>GranularMicrostructure</title>
<g id="a_node15"><a xlink:href="https://w3id.org/emmo/domain/magnetic-materials#EMMO_cf5261fe-bdab-5c7b-b6a8-f9a313687bc2" xlink:title="GranularMicrostructure">
<ellipse fill="#ffffcc" stroke="red" cx="428.43" cy="-403" rx="131.7" ry="18"/>
<text xml:space="preserve" text-anchor="middle" x="428.43" y="-398.32" font-family="Times,serif" font-size="14.00">GranularMicrostructure</text>
</a>
</g>
</g>
<!-- Magnet&#45;&gt;GranularMicrostructure -->
<g id="edge15" class="edge">
<title>Magnet&#45;&gt;GranularMicrostructure</title>
<path fill="none" stroke="darkgreen" d="M880.75,-510.42C851.82,-497.56 809.37,-476.46 777.09,-451 767.63,-443.54 769.85,-436.14 759.09,-430.75 694.27,-398.31 613.25,-391.11 547.75,-392.15"/>
<polygon fill="darkgreen" stroke="darkgreen" points="547.97,-388.64 538.06,-392.37 548.13,-395.64 547.97,-388.64"/>
<text xml:space="preserve" text-anchor="middle" x="680.71" y="-434.7" font-family="Times,serif" font-size="14.00">hasSpatialPart min 0</text>
</g>
<!-- WorkpieceForming -->
<g id="node16" class="node">
<title>WorkpieceForming</title>
<g id="a_node16"><a xlink:href="https://w3id.org/emmo#EMMO_dd4b7d81_28a9_4801_8831_4cbab217e362" xlink:title="WorkpieceForming">
<ellipse fill="#ffffcc" stroke="red" cx="428.43" cy="-349" rx="105.4" ry="18"/>
<text xml:space="preserve" text-anchor="middle" x="428.43" y="-344.32" font-family="Times,serif" font-size="14.00">WorkpieceForming</text>
</a>
</g>
</g>
<!-- Magnet&#45;&gt;WorkpieceForming -->
<g id="edge16" class="edge">
<title>Magnet&#45;&gt;WorkpieceForming</title>
<path fill="none" stroke="orange" stroke-dasharray="1,5" d="M874.39,-512.98C843.34,-502.21 801.28,-482.73 777.09,-451 755.18,-422.28 786.52,-395.24 759.09,-371.75 742.86,-357.85 633.89,-352.43 545.61,-350.32"/>
<polygon fill="orange" stroke="orange" points="545.72,-346.82 535.64,-350.09 545.56,-353.82 545.72,-346.82"/>
<text xml:space="preserve" text-anchor="middle" x="680.71" y="-375.7" font-family="Times,serif" font-size="14.00">hasProperty min 0</text>
</g>
<!-- MaterialsProcessing -->
<g id="node17" class="node">
<title>MaterialsProcessing</title>
<g id="a_node17"><a xlink:href="https://w3id.org/emmo#EMMO_71d1c8f0_c6e3_44b5_a4b6_1b74ff35698a" xlink:title="MaterialsProcessing">
<ellipse fill="#ffffcc" stroke="red" cx="428.43" cy="-295" rx="113.82" ry="18"/>
<text xml:space="preserve" text-anchor="middle" x="428.43" y="-290.32" font-family="Times,serif" font-size="14.00">MaterialsProcessing</text>
</a>
</g>
</g>
<!-- Magnet&#45;&gt;MaterialsProcessing -->
<g id="edge17" class="edge">
<title>Magnet&#45;&gt;MaterialsProcessing</title>
<path fill="none" stroke="orange" stroke-dasharray="1,5" d="M873.75,-513.45C842.33,-502.95 800.08,-483.61 777.09,-451 745.95,-406.83 798.07,-368.18 759.09,-330.75 751.14,-323.12 634.77,-311.83 542.52,-303.98"/>
<polygon fill="orange" stroke="orange" points="542.88,-300.5 532.62,-303.15 542.29,-307.48 542.88,-300.5"/>
<text xml:space="preserve" text-anchor="middle" x="680.71" y="-334.7" font-family="Times,serif" font-size="14.00">hasProperty min 0</text>
</g>
<!-- ShapeAnisotropy&#45;&gt;DemagnetizingFactor -->
<g id="edge22" class="edge">
<title>ShapeAnisotropy&#45;&gt;DemagnetizingFactor</title>
<path fill="none" stroke="orange" stroke-dasharray="1,5" d="M842.8,-411.6C818.53,-403.86 793.4,-391.32 777.09,-371 744.08,-329.89 796.17,-291.22 759.09,-253.75 709.43,-203.57 650.62,-279.51 602.34,-228 574.39,-198.19 612.13,-74.95 584.34,-45 576.47,-36.52 566.96,-30.11 556.57,-25.31"/>
<polygon fill="orange" stroke="orange" points="557.9,-22.08 547.32,-21.6 555.3,-28.57 557.9,-22.08"/>
<text xml:space="preserve" text-anchor="middle" x="680.71" y="-257.7" font-family="Times,serif" font-size="14.00">hasProperty exactly 1</text>
</g>
<!-- ShapeAnisotropy&#45;&gt;Referent -->
<g id="edge20" class="edge">
<title>ShapeAnisotropy&#45;&gt;Referent</title>
<path fill="none" stroke="black" d="M998.24,-433.2C1048.58,-438.8 1111.87,-445.85 1158.13,-451"/>
<polygon fill="none" stroke="black" points="1157.67,-454.47 1168,-452.09 1158.44,-447.51 1157.67,-454.47"/>
<text xml:space="preserve" text-anchor="middle" x="1080.94" y="-446.99" font-family="Times,serif" font-size="14.00">isA</text>
</g>
<!-- MagneticAnisotropy -->
<g id="node20" class="node">
<title>MagneticAnisotropy</title>
<g id="a_node20"><a xlink:href="https://w3id.org/emmo/domain/magnetic-materials#EMMO_3a63baaf-4d7c-5ea5-93ce-9c8917a3290c" xlink:title="MagneticAnisotropy">
<ellipse fill="#ffffcc" stroke="red" cx="1222.05" cy="-404" rx="112.24" ry="18"/>
<text xml:space="preserve" text-anchor="middle" x="1222.05" y="-399.32" font-family="Times,serif" font-size="14.00">MagneticAnisotropy</text>
</a>
</g>
</g>
<!-- ShapeAnisotropy&#45;&gt;MagneticAnisotropy -->
<g id="edge21" class="edge">
<title>ShapeAnisotropy&#45;&gt;MagneticAnisotropy</title>
<path fill="none" stroke="black" d="M991.23,-412.75C1016.27,-409.51 1044.31,-406.41 1070.07,-404.75 1079.28,-404.16 1088.82,-403.71 1098.41,-403.38"/>
<polygon fill="none" stroke="black" points="1098.28,-406.89 1108.17,-403.1 1098.08,-399.89 1098.28,-406.89"/>
<text xml:space="preserve" text-anchor="middle" x="1080.94" y="-408.7" font-family="Times,serif" font-size="14.00">isA</text>
</g>
<!-- ShapeAnisotropyConstant -->
<g id="node21" class="node">
<title>ShapeAnisotropyConstant</title>
<g id="a_node21"><a xlink:href="https://w3id.org/emmo/domain/magnetic-materials#EMMO_ac6edd90-c273-5203-836b-82462863f2c8" xlink:title="ShapeAnisotropyConstant">
<ellipse fill="#ffffcc" stroke="red" cx="428.43" cy="-184" rx="141.7" ry="18"/>
<text xml:space="preserve" text-anchor="middle" x="428.43" y="-179.32" font-family="Times,serif" font-size="14.00">ShapeAnisotropyConstant</text>
</a>
</g>
</g>
<!-- ShapeAnisotropy&#45;&gt;ShapeAnisotropyConstant -->
<g id="edge23" class="edge">
<title>ShapeAnisotropy&#45;&gt;ShapeAnisotropyConstant</title>
<path fill="none" stroke="orange" stroke-dasharray="1,5" d="M842,-411.84C817.79,-404.13 792.9,-391.54 777.09,-371 755.23,-342.61 784.81,-235.69 759.09,-210.75 745.63,-197.7 660.1,-191 579.54,-187.57"/>
<polygon fill="orange" stroke="orange" points="579.86,-184.08 569.72,-187.17 579.57,-191.08 579.86,-184.08"/>
<text xml:space="preserve" text-anchor="middle" x="680.71" y="-214.7" font-family="Times,serif" font-size="14.00">hasProperty exactly 1</text>
</g>
<!-- ElectromagneticQuantity -->
<g id="node18" class="node">
<title>ElectromagneticQuantity</title>
<g id="a_node18"><a xlink:href="https://w3id.org/emmo#EMMO_af794e9d_dc7d_4756_83e1_2cd0e2ec864e" xlink:title="ElectromagneticQuantity">
<ellipse fill="#ffffcc" stroke="red" cx="914.58" cy="-18" rx="137.49" ry="18"/>
<text xml:space="preserve" text-anchor="middle" x="914.58" y="-13.32" font-family="Times,serif" font-size="14.00">ElectromagneticQuantity</text>
</a>
</g>
</g>
<!-- DemagnetizingFactor&#45;&gt;ElectromagneticQuantity -->
<g id="edge18" class="edge">
<title>DemagnetizingFactor&#45;&gt;ElectromagneticQuantity</title>
<path fill="none" stroke="black" d="M547.87,-18C613.5,-18 695.71,-18 765.55,-18"/>
<polygon fill="none" stroke="black" points="765.14,-21.5 775.14,-18 765.14,-14.5 765.14,-21.5"/>
<text xml:space="preserve" text-anchor="middle" x="680.71" y="-21.95" font-family="Times,serif" font-size="14.00">isA</text>
</g>
<!-- DimensionlessUnit -->
<g id="node19" class="node">
<title>DimensionlessUnit</title>
<g id="a_node19"><a xlink:href="https://w3id.org/emmo#EMMO_3227b821_26a5_4c7c_9c01_5c24483e0bd0" xlink:title="DimensionlessUnit">
<ellipse fill="#ffffcc" stroke="red" cx="428.43" cy="-240" rx="105.92" ry="18"/>
<text xml:space="preserve" text-anchor="middle" x="428.43" y="-235.32" font-family="Times,serif" font-size="14.00">DimensionlessUnit</text>
</a>
</g>
</g>
<!-- DemagnetizingFactor&#45;&gt;DimensionlessUnit -->
<g id="edge19" class="edge">
<title>DemagnetizingFactor&#45;&gt;DimensionlessUnit</title>
<path fill="none" stroke="orange" stroke-dasharray="5,2" d="M309.22,-18.9C235.54,-26.61 146.87,-50.54 102.7,-117.38 47.89,-200.31 198.06,-227.29 312.38,-235.99"/>
<polygon fill="orange" stroke="orange" points="311.94,-239.46 322.17,-236.69 312.44,-232.48 311.94,-239.46"/>
<text xml:space="preserve" text-anchor="middle" x="155.9" y="-121.33" font-family="Times,serif" font-size="14.00">hasMeasurementUnit some</text>
</g>
<!-- SampleGeometry&#45;&gt;Referent -->
<g id="edge6" class="edge">
<title>SampleGeometry&#45;&gt;Referent</title>
<path fill="none" stroke="black" d="M1010.81,-347.63C1039.6,-352.98 1069.46,-363.34 1091.82,-382.75 1109.1,-397.76 1092.7,-415.81 1109.82,-431 1122.74,-442.47 1139.72,-449.26 1156.5,-453.23"/>
<polygon fill="none" stroke="black" points="1155.48,-456.6 1165.98,-455.16 1156.88,-449.74 1155.48,-456.6"/>
<text xml:space="preserve" text-anchor="middle" x="1080.94" y="-386.7" font-family="Times,serif" font-size="14.00">isA</text>
</g>
<!-- Property -->
<g id="node8" class="node">
<title>Property</title>
<g id="a_node8"><a xlink:href="https://w3id.org/emmo#EMMO_b7bcff25_ffc3_474e_9ab5_01b1664bd4ba" xlink:title="Property">
<ellipse fill="#ffffcc" stroke="red" cx="1222.05" cy="-324" rx="55.42" ry="18"/>
<text xml:space="preserve" text-anchor="middle" x="1222.05" y="-319.32" font-family="Times,serif" font-size="14.00">Property</text>
</a>
</g>
</g>
<!-- SampleGeometry&#45;&gt;Property -->
<g id="edge7" class="edge">
<title>SampleGeometry&#45;&gt;Property</title>
<path fill="none" stroke="black" d="M992.02,-332.65C1016.86,-329.45 1044.58,-326.4 1070.07,-324.75 1097.87,-322.96 1128.61,-322.52 1155.05,-322.63"/>
<polygon fill="none" stroke="black" points="1154.95,-326.13 1164.97,-322.7 1155,-319.13 1154.95,-326.13"/>
<text xml:space="preserve" text-anchor="middle" x="1080.94" y="-328.7" font-family="Times,serif" font-size="14.00">isA</text>
</g>
<!-- GeometricalSize -->
<g id="node9" class="node">
<title>GeometricalSize</title>
<g id="a_node9"><a xlink:href="https://w3id.org/emmo/domain/magnetic-materials#EMMO_0213900b-ab6d-56be-82fb-4db874974de1" xlink:title="GeometricalSize">
<ellipse fill="#ffffcc" stroke="red" cx="428.43" cy="-126" rx="93.3" ry="18"/>
<text xml:space="preserve" text-anchor="middle" x="428.43" y="-121.33" font-family="Times,serif" font-size="14.00">GeometricalSize</text>
</a>
</g>
</g>
<!-- SampleGeometry&#45;&gt;GeometricalSize -->
<g id="edge8" class="edge">
<title>SampleGeometry&#45;&gt;GeometricalSize</title>
<path fill="none" stroke="orange" stroke-dasharray="1,5" d="M907.34,-325.7C891.12,-281.47 842.99,-169.16 759.09,-125.75 719.46,-105.25 605.82,-109.81 523.02,-116.52"/>
<polygon fill="orange" stroke="orange" points="522.74,-113.03 513.06,-117.35 523.32,-120 522.74,-113.03"/>
<text xml:space="preserve" text-anchor="middle" x="680.71" y="-129.7" font-family="Times,serif" font-size="14.00">hasProperty exactly 1</text>
</g>
<!-- GeometricShape -->
<g id="node10" class="node">
<title>GeometricShape</title>
<g id="a_node10"><a xlink:href="https://w3id.org/emmo/domain/magnetic-materials#EMMO_aa999d91-076f-512a-85a0-c2f751c083b1" xlink:title="GeometricShape">
<ellipse fill="#ffffcc" stroke="red" cx="428.43" cy="-72" rx="94.35" ry="18"/>
<text xml:space="preserve" text-anchor="middle" x="428.43" y="-67.33" font-family="Times,serif" font-size="14.00">GeometricShape</text>
</a>
</g>
</g>
<!-- SampleGeometry&#45;&gt;GeometricShape -->
<g id="edge9" class="edge">
<title>SampleGeometry&#45;&gt;GeometricShape</title>
<path fill="none" stroke="orange" stroke-dasharray="1,5" d="M908.85,-325.66C895.22,-277 850.83,-144.65 759.09,-89.75 682.06,-43.65 575.89,-47.32 505.07,-57.11"/>
<polygon fill="orange" stroke="orange" points="504.91,-53.59 495.52,-58.51 505.92,-60.52 504.91,-53.59"/>
<text xml:space="preserve" text-anchor="middle" x="680.71" y="-93.7" font-family="Times,serif" font-size="14.00">hasProperty exactly 1</text>
</g>
<!-- key1 -->
<g id="node22" class="node">
<title>key1</title>
<text xml:space="preserve" text-anchor="start" x="482.06" y="-690.2" font-family="Times,serif" font-weight="bold" font-size="14.00">isA</text>
<text xml:space="preserve" text-anchor="start" x="350.81" y="-667.95" font-family="Times,serif" font-size="14.00">hasMeasurementUnit</text>
<text xml:space="preserve" text-anchor="start" x="410.06" y="-647.7" font-family="Times,serif" font-weight="bold" font-size="14.00">hasProperty</text>
<text xml:space="preserve" text-anchor="start" x="389.81" y="-626.45" font-family="Times,serif" font-weight="bold" font-size="14.00">hasSpatialPart</text>
</g>
<!-- key2 -->
<g id="node23" class="node">
<title>key2</title>
<text xml:space="preserve" text-anchor="start" x="912.33" y="-688.2" font-family="Times,serif" font-size="14.00"> </text>
<text xml:space="preserve" text-anchor="start" x="912.33" y="-666.95" font-family="Times,serif" font-size="14.00"> </text>
<text xml:space="preserve" text-anchor="start" x="912.33" y="-645.7" font-family="Times,serif" font-size="14.00"> </text>
<text xml:space="preserve" text-anchor="start" x="912.33" y="-624.45" font-family="Times,serif" font-size="14.00"> </text>
</g>
<!-- key1&#45;&gt;key2 -->
<g id="edge24" class="edge">
<title>key1:e&#45;&gt;key2:w</title>
<path fill="none" stroke="black" d="M509.06,-693.88C683.13,-693.88 729.46,-692.92 898.04,-692.88"/>
<polygon fill="none" stroke="black" points="897.81,-696.38 907.81,-692.88 897.81,-689.38 897.81,-696.38"/>
</g>
<!-- key1&#45;&gt;key2 -->
<g id="edge25" class="edge">
<title>key1:e&#45;&gt;key2:w</title>
<path fill="none" stroke="orange" stroke-dasharray="5,2" d="M509.06,-672.62C683.13,-672.62 729.46,-671.67 898.04,-671.63"/>
<polygon fill="orange" stroke="orange" points="897.81,-675.13 907.81,-671.63 897.81,-668.13 897.81,-675.13"/>
</g>
<!-- key1&#45;&gt;key2 -->
<g id="edge26" class="edge">
<title>key1:e&#45;&gt;key2:w</title>
<path fill="none" stroke="orange" stroke-dasharray="1,5" d="M509.06,-651.38C683.13,-651.38 729.46,-650.42 898.04,-650.38"/>
<polygon fill="orange" stroke="orange" points="897.81,-653.88 907.81,-650.38 897.81,-646.88 897.81,-653.88"/>
</g>
<!-- key1&#45;&gt;key2 -->
<g id="edge27" class="edge">
<title>key1:e&#45;&gt;key2:w</title>
<path fill="none" stroke="darkgreen" d="M509.06,-630.12C683.13,-630.12 729.46,-629.17 898.04,-629.13"/>
<polygon fill="darkgreen" stroke="darkgreen" points="897.81,-632.63 907.81,-629.13 897.81,-625.63 897.81,-632.63"/>
</g>
</g>
</svg>
