<?xml version="1.0" encoding="UTF-8" standalone="no"?>
<!DOCTYPE svg PUBLIC "-//W3C//DTD SVG 1.1//EN"
 "http://www.w3.org/Graphics/SVG/1.1/DTD/svg11.dtd">
<!-- Generated by graphviz version 14.1.2 (20260126.1125)
 -->
<!-- Pages: 1 -->
<svg width="1009pt" height="541pt"
 viewBox="0.00 0.00 1009.00 541.00" xmlns="http://www.w3.org/2000/svg" xmlns:xlink="http://www.w3.org/1999/xlink">
<g id="graph0" class="graph" transform="scale(1 1) rotate(0) translate(4 536.96)">
<polygon fill="white" stroke="none" points="-4,4 -4,-536.96 1004.73,-536.96 1004.73,4 -4,4"/>
<!-- CrystallineMagneticMaterial -->
<g id="node1" class="node">
<title>CrystallineMagneticMaterial</title>
<g id="a_node1"><a xlink:href="https://w3id.org/emmo/domain/magnetic-materials#EMMO_aaa107b8-4dd9-5fc8-b135-a604a0cb38b1" xlink:title="CrystallineMagneticMaterial">
<ellipse fill="#ffffcc" stroke="black" stroke-width="2" cx="155.38" cy="-408.09" rx="155.38" ry="18"/>
<text xml:space="preserve" text-anchor="middle" x="155.38" y="-403.41" font-family="Times,serif" font-size="14.00">CrystallineMagneticMaterial</text>
</a>
</g>
</g>
<!-- GranularStructure -->
<g id="node2" class="node">
<title>GranularStructure</title>
<g id="a_node2"><a xlink:href="https://w3id.org/emmo/domain/magnetic-materials#EMMO_75b995e0-2bac-5812-a7f6-f8c1731d1d5c" xlink:title="GranularStructure">
<ellipse fill="#ffffcc" stroke="red" cx="607.85" cy="-371.09" rx="104.35" ry="18"/>
<text xml:space="preserve" text-anchor="middle" x="607.85" y="-366.41" font-family="Times,serif" font-size="14.00">GranularStructure</text>
</a>
</g>
</g>
<!-- CrystallineMagneticMaterial&#45;&gt;GranularStructure -->
<g id="edge1" class="edge">
<title>CrystallineMagneticMaterial&#45;&gt;GranularStructure</title>
<path fill="none" stroke="black" d="M284.86,-397.45C299.67,-396.23 314.54,-395.01 328.76,-393.84 385.77,-389.15 449.35,-383.95 501.32,-379.7"/>
<polygon fill="none" stroke="black" points="501.37,-383.21 511.05,-378.9 500.8,-376.23 501.37,-383.21"/>
<text xml:space="preserve" text-anchor="middle" x="407.13" y="-397.79" font-family="Times,serif" font-size="14.00">isA</text>
</g>
<!-- MagneticMaterial -->
<g id="node3" class="node">
<title>MagneticMaterial</title>
<g id="a_node3"><a xlink:href="https://w3id.org/emmo/domain/magnetic-materials#EMMO_c5ca93ce-ad27-5f4a-95ef-aca0990c6937" xlink:title="MagneticMaterial">
<ellipse fill="#ffffcc" stroke="red" cx="607.85" cy="-425.09" rx="100.66" ry="18"/>
<text xml:space="preserve" text-anchor="middle" x="607.85" y="-420.41" font-family="Times,serif" font-size="14.00">MagneticMaterial</text>
</a>
</g>
</g>
<!-- CrystallineMagneticMaterial&#45;&gt;MagneticMaterial -->
<g id="edge2" class="edge">
<title>CrystallineMagneticMaterial&#45;&gt;MagneticMaterial</title>
<path fill="none" stroke="black" d="M304.5,-413.68C367.49,-416.05 439.63,-418.78 497.64,-420.97"/>
<polygon fill="none" stroke="black" points="497.41,-424.46 507.53,-421.34 497.67,-417.46 497.41,-424.46"/>
<text xml:space="preserve" text-anchor="middle" x="407.13" y="-424.01" font-family="Times,serif" font-size="14.00">isA</text>
</g>
<!-- Referent -->
<g id="node4" class="node">
<title>Referent</title>
<g id="a_node4"><a xlink:href="https://w3id.org/emmo#EMMO_6f5af708_f825_4feb_a0d1_a8d813d3022b" xlink:title="Referent">
<ellipse fill="#ffffcc" stroke="red" cx="885.34" cy="-398.09" rx="54.89" ry="18"/>
<text xml:space="preserve" text-anchor="middle" x="885.34" y="-393.41" font-family="Times,serif" font-size="14.00">Referent</text>
</a>
</g>
</g>
<!-- GranularStructure&#45;&gt;Referent -->
<g id="edge3" class="edge">
<title>GranularStructure&#45;&gt;Referent</title>
<path fill="none" stroke="black" d="M709.79,-375.41C723.96,-376.35 738.33,-377.48 751.95,-378.84 775.77,-381.21 801.88,-384.79 824.56,-388.23"/>
<polygon fill="none" stroke="black" points="823.83,-391.66 834.24,-389.72 824.89,-384.74 823.83,-391.66"/>
<text xml:space="preserve" text-anchor="middle" x="741.07" y="-382.79" font-family="Times,serif" font-size="14.00">isA</text>
</g>
<!-- CrystallineMaterial -->
<g id="node5" class="node">
<title>CrystallineMaterial</title>
<g id="a_node5"><a xlink:href="https://w3id.org/emmo#EMMO_f1025834_0cd2_42a1_bfeb_13bec41c8655" xlink:title="CrystallineMaterial">
<ellipse fill="#ffffcc" stroke="red" cx="885.34" cy="-338.09" rx="108.55" ry="18"/>
<text xml:space="preserve" text-anchor="middle" x="885.34" y="-333.41" font-family="Times,serif" font-size="14.00">CrystallineMaterial</text>
</a>
</g>
</g>
<!-- GranularStructure&#45;&gt;CrystallineMaterial -->
<g id="edge4" class="edge">
<title>GranularStructure&#45;&gt;CrystallineMaterial</title>
<path fill="none" stroke="black" d="M693.05,-360.39C705.5,-358.84 718.18,-357.28 730.2,-355.84 747.39,-353.77 765.67,-351.62 783.4,-349.56"/>
<polygon fill="none" stroke="black" points="783.63,-353.06 793.16,-348.43 782.82,-346.1 783.63,-353.06"/>
<text xml:space="preserve" text-anchor="middle" x="741.07" y="-359.79" font-family="Times,serif" font-size="14.00">isA</text>
</g>
<!-- CrystalStructure -->
<g id="node6" class="node">
<title>CrystalStructure</title>
<g id="a_node6"><a xlink:href="https://w3id.org/emmo/domain/magnetic-materials#EMMO_2c96e798-57dc-5c12-ad10-f3ec261549d3" xlink:title="CrystalStructure">
<ellipse fill="#ffffcc" stroke="red" cx="155.38" cy="-183.09" rx="95.93" ry="18"/>
<text xml:space="preserve" text-anchor="middle" x="155.38" y="-178.41" font-family="Times,serif" font-size="14.00">CrystalStructure</text>
</a>
</g>
</g>
<!-- GranularStructure&#45;&gt;CrystalStructure -->
<g id="edge5" class="edge">
<title>GranularStructure&#45;&gt;CrystalStructure</title>
<path fill="none" stroke="orange" stroke-dasharray="1,5" d="M600.93,-352.87C587.48,-314.82 550.6,-227.49 485.51,-191.84 405.92,-148.24 298.47,-155.35 228.32,-167.04"/>
<polygon fill="orange" stroke="orange" points="228.13,-163.52 218.88,-168.69 229.33,-170.42 228.13,-163.52"/>
<text xml:space="preserve" text-anchor="middle" x="407.13" y="-195.79" font-family="Times,serif" font-size="14.00">hasProperty exactly 1</text>
</g>
<!-- GrainSizeDistribution -->
<g id="node7" class="node">
<title>GrainSizeDistribution</title>
<g id="a_node7"><a xlink:href="https://w3id.org/emmo/domain/magnetic-materials#EMMO_ada88738-c901-5d83-884b-5f84d27ce527" xlink:title="GrainSizeDistribution">
<ellipse fill="#ffffcc" stroke="red" cx="155.38" cy="-129.09" rx="120.65" ry="18"/>
<text xml:space="preserve" text-anchor="middle" x="155.38" y="-124.41" font-family="Times,serif" font-size="14.00">GrainSizeDistribution</text>
</a>
</g>
</g>
<!-- GranularStructure&#45;&gt;GrainSizeDistribution -->
<g id="edge6" class="edge">
<title>GranularStructure&#45;&gt;GrainSizeDistribution</title>
<path fill="none" stroke="orange" stroke-dasharray="1,5" d="M603.8,-352.82C595.05,-306.86 565.15,-186.57 485.51,-136.84 450.95,-115.26 352.83,-115.31 272.65,-119.59"/>
<polygon fill="orange" stroke="orange" points="272.76,-116.08 262.98,-120.14 273.16,-123.07 272.76,-116.08"/>
<text xml:space="preserve" text-anchor="middle" x="407.13" y="-140.79" font-family="Times,serif" font-size="14.00">hasProperty exactly 1</text>
</g>
<!-- XrayDiffractionData -->
<g id="node8" class="node">
<title>XrayDiffractionData</title>
<g id="a_node8"><a xlink:href="https://w3id.org/emmo/domain/magnetic-materials#EMMO_38684bd3-8137-5af1-9c0d-b32bcf58fefc" xlink:title="XrayDiffractionData">
<ellipse fill="#ffffcc" stroke="red" cx="155.38" cy="-75.09" rx="111.18" ry="18"/>
<text xml:space="preserve" text-anchor="middle" x="155.38" y="-70.41" font-family="Times,serif" font-size="14.00">XrayDiffractionData</text>
</a>
</g>
</g>
<!-- GranularStructure&#45;&gt;XrayDiffractionData -->
<g id="edge7" class="edge">
<title>GranularStructure&#45;&gt;XrayDiffractionData</title>
<path fill="none" stroke="orange" stroke-dasharray="1,5" d="M605.09,-352.61C599.13,-301.54 574.8,-158.15 485.51,-95.84 452.15,-72.56 354.46,-68.73 274.1,-69.93"/>
<polygon fill="orange" stroke="orange" points="274.34,-66.42 264.4,-70.1 274.46,-73.42 274.34,-66.42"/>
<text xml:space="preserve" text-anchor="middle" x="407.13" y="-99.79" font-family="Times,serif" font-size="14.00">hasProperty min 0</text>
</g>
<!-- Grain -->
<g id="node9" class="node">
<title>Grain</title>
<g id="a_node9"><a xlink:href="https://w3id.org/emmo/domain/magnetic-materials#EMMO_b0f0e57e-464d-562f-80ec-b216c92d5e88" xlink:title="Grain">
<ellipse fill="#ffffcc" stroke="red" cx="155.38" cy="-21.09" rx="39.11" ry="18"/>
<text xml:space="preserve" text-anchor="middle" x="155.38" y="-16.41" font-family="Times,serif" font-size="14.00">Grain</text>
</a>
</g>
</g>
<!-- GranularStructure&#45;&gt;Grain -->
<g id="edge8" class="edge">
<title>GranularStructure&#45;&gt;Grain</title>
<path fill="none" stroke="darkgreen" d="M606.31,-352.97C603.55,-296.91 586.84,-125.45 485.51,-48.84 402.1,14.23 270.52,1.53 201.72,-11"/>
<polygon fill="darkgreen" stroke="darkgreen" points="201.48,-7.48 192.32,-12.79 202.8,-14.35 201.48,-7.48"/>
<text xml:space="preserve" text-anchor="middle" x="407.13" y="-52.79" font-family="Times,serif" font-size="14.00">hasSpatialPart min 0</text>
</g>
<!-- MagneticMaterial&#45;&gt;Referent -->
<g id="edge9" class="edge">
<title>MagneticMaterial&#45;&gt;Referent</title>
<path fill="none" stroke="black" d="M697.15,-416.43C737.52,-412.48 784.41,-407.88 821.17,-404.28"/>
<polygon fill="none" stroke="black" points="821.11,-407.8 830.72,-403.34 820.43,-400.83 821.11,-407.8"/>
<text xml:space="preserve" text-anchor="middle" x="741.07" y="-416.35" font-family="Times,serif" font-size="14.00">isA</text>
</g>
<!-- MaterialByStructure -->
<g id="node10" class="node">
<title>MaterialByStructure</title>
<g id="a_node10"><a xlink:href="https://w3id.org/emmo#EMMO_f00fb163_48c9_4c59_b6c2_4205c082aa54" xlink:title="MaterialByStructure">
<ellipse fill="#ffffcc" stroke="red" cx="885.34" cy="-458.09" rx="115.39" ry="18"/>
<text xml:space="preserve" text-anchor="middle" x="885.34" y="-453.41" font-family="Times,serif" font-size="14.00">MaterialByStructure</text>
</a>
</g>
</g>
<!-- MagneticMaterial&#45;&gt;MaterialByStructure -->
<g id="edge10" class="edge">
<title>MagneticMaterial&#45;&gt;MaterialByStructure</title>
<path fill="none" stroke="black" d="M692.63,-435.12C720.56,-438.47 752.01,-442.24 781.24,-445.74"/>
<polygon fill="none" stroke="black" points="780.47,-449.17 790.81,-446.88 781.3,-442.22 780.47,-449.17"/>
<text xml:space="preserve" text-anchor="middle" x="741.07" y="-445.54" font-family="Times,serif" font-size="14.00">isA</text>
</g>
<!-- Density -->
<g id="node11" class="node">
<title>Density</title>
<g id="a_node11"><a xlink:href="https://w3id.org/emmo#EMMO_06448f64_8db6_4304_8b2c_e785dba82044" xlink:title="Density">
<ellipse fill="#ffffcc" stroke="red" cx="155.38" cy="-351.09" rx="49.63" ry="18"/>
<text xml:space="preserve" text-anchor="middle" x="155.38" y="-346.41" font-family="Times,serif" font-size="14.00">Density</text>
</a>
</g>
</g>
<!-- MagneticMaterial&#45;&gt;Density -->
<g id="edge11" class="edge">
<title>MagneticMaterial&#45;&gt;Density</title>
<path fill="none" stroke="orange" stroke-dasharray="1,5" d="M530.28,-413.34C520.59,-409.57 511.35,-404.61 503.51,-398.09 489.05,-386.08 501.23,-370.11 485.51,-359.84 400.63,-304.38 275.36,-321.57 206.43,-337.36"/>
<polygon fill="orange" stroke="orange" points="205.84,-333.9 196.93,-339.62 207.46,-340.71 205.84,-333.9"/>
<text xml:space="preserve" text-anchor="middle" x="407.13" y="-363.79" font-family="Times,serif" font-size="14.00">hasProperty exactly 1</text>
</g>
<!-- ChemicalComposition -->
<g id="node12" class="node">
<title>ChemicalComposition</title>
<g id="a_node12"><a xlink:href="https://w3id.org/emmo#EMMO_7efd64d1_05a1_49cd_a7f0_783ca050d4f3" xlink:title="ChemicalComposition">
<ellipse fill="#ffc880" stroke="red" cx="155.38" cy="-291.09" rx="120.13" ry="18"/>
<text xml:space="preserve" text-anchor="middle" x="155.38" y="-286.41" font-family="Times,serif" font-size="14.00">ChemicalComposition</text>
</a>
</g>
</g>
<!-- MagneticMaterial&#45;&gt;ChemicalComposition -->
<g id="edge12" class="edge">
<title>MagneticMaterial&#45;&gt;ChemicalComposition</title>
<path fill="none" stroke="orange" stroke-dasharray="1,5" d="M526.57,-414.2C517.92,-410.25 509.95,-405.01 503.51,-398.09 473.57,-365.9 518.88,-329.45 485.51,-300.84 453.56,-273.45 349.49,-274.34 266.83,-280.04"/>
<polygon fill="orange" stroke="orange" points="266.81,-276.53 257.08,-280.74 267.31,-283.51 266.81,-276.53"/>
<text xml:space="preserve" text-anchor="middle" x="407.13" y="-304.79" font-family="Times,serif" font-size="14.00">hasProperty exactly 1</text>
</g>
<!-- IntrinsicMagneticProperties -->
<g id="node13" class="node">
<title>IntrinsicMagneticProperties</title>
<g id="a_node13"><a xlink:href="https://w3id.org/emmo/domain/magnetic-materials#EMMO_af8d3fb8-20fe-5f9f-9f85-fd298e26ad7e" xlink:title="IntrinsicMagneticProperties">
<ellipse fill="#ffffcc" stroke="red" cx="155.38" cy="-237.09" rx="152.75" ry="18"/>
<text xml:space="preserve" text-anchor="middle" x="155.38" y="-232.41" font-family="Times,serif" font-size="14.00">IntrinsicMagneticProperties</text>
</a>
</g>
</g>
<!-- MagneticMaterial&#45;&gt;IntrinsicMagneticProperties -->
<g id="edge13" class="edge">
<title>MagneticMaterial&#45;&gt;IntrinsicMagneticProperties</title>
<path fill="none" stroke="orange" stroke-dasharray="1,5" d="M525.68,-414.31C517.29,-410.33 509.62,-405.05 503.51,-398.09 461.46,-350.2 532.09,-299.32 485.51,-255.84 458.59,-230.71 375.58,-226.11 299.67,-227.74"/>
<polygon fill="orange" stroke="orange" points="299.95,-224.23 290.04,-227.99 300.13,-231.23 299.95,-224.23"/>
<text xml:space="preserve" text-anchor="middle" x="407.13" y="-259.79" font-family="Times,serif" font-size="14.00">hasProperty exactly 1</text>
</g>
<!-- key1 -->
<g id="node14" class="node">
<title>key1</title>
<text xml:space="preserve" text-anchor="start" x="189.5" y="-514.66" font-family="Times,serif" font-weight="bold" font-size="14.00">isA</text>
<text xml:space="preserve" text-anchor="start" x="117.5" y="-493.41" font-family="Times,serif" font-weight="bold" font-size="14.00">hasProperty</text>
<text xml:space="preserve" text-anchor="start" x="97.25" y="-472.16" font-family="Times,serif" font-weight="bold" font-size="14.00">hasSpatialPart</text>
</g>
<!-- key2 -->
<g id="node15" class="node">
<title>key2</title>
<text xml:space="preserve" text-anchor="start" x="605.6" y="-513.66" font-family="Times,serif" font-size="14.00"> </text>
<text xml:space="preserve" text-anchor="start" x="605.6" y="-492.41" font-family="Times,serif" font-size="14.00"> </text>
<text xml:space="preserve" text-anchor="start" x="605.6" y="-471.16" font-family="Times,serif" font-size="14.00"> </text>
</g>
<!-- key1&#45;&gt;key2 -->
<g id="edge14" class="edge">
<title>key1:e&#45;&gt;key2:w</title>
<path fill="none" stroke="black" d="M216.5,-518.34C384.25,-518.34 429.01,-518.34 591.23,-518.34"/>
<polygon fill="none" stroke="black" points="591.09,-521.84 601.09,-518.34 591.09,-514.84 591.09,-521.84"/>
</g>
<!-- key1&#45;&gt;key2 -->
<g id="edge15" class="edge">
<title>key1:e&#45;&gt;key2:w</title>
<path fill="none" stroke="orange" stroke-dasharray="1,5" d="M216.5,-497.09C384.25,-497.09 429.01,-497.09 591.23,-497.09"/>
<polygon fill="orange" stroke="orange" points="591.09,-500.59 601.09,-497.09 591.09,-493.59 591.09,-500.59"/>
</g>
<!-- key1&#45;&gt;key2 -->
<g id="edge16" class="edge">
<title>key1:e&#45;&gt;key2:w</title>
<path fill="none" stroke="darkgreen" d="M216.5,-475.84C384.25,-475.84 429.01,-475.84 591.23,-475.84"/>
<polygon fill="darkgreen" stroke="darkgreen" points="591.09,-479.34 601.09,-475.84 591.09,-472.34 591.09,-479.34"/>
</g>
</g>
</svg>
