<?xml version="1.0" encoding="UTF-8" standalone="no"?>
<!DOCTYPE svg PUBLIC "-//W3C//DTD SVG 1.1//EN"
 "http://www.w3.org/Graphics/SVG/1.1/DTD/svg11.dtd">
<!-- Generated by graphviz version 14.1.2 (20260126.1125)
 -->
<!-- Pages: 1 -->
<svg width="1266pt" height="1547pt"
 viewBox="0.00 0.00 1266.00 1547.00" xmlns="http://www.w3.org/2000/svg" xmlns:xlink="http://www.w3.org/1999/xlink">
<g id="graph0" class="graph" transform="scale(1 1) rotate(0) translate(4 1542.88)">
<polygon fill="white" stroke="none" points="-4,4 -4,-1542.88 1261.69,-1542.88 1261.69,4 -4,4"/>
<!-- ExtrinsicMagneticProperties -->
<g id="node1" class="node">
<title>ExtrinsicMagneticProperties</title>
<g id="a_node1"><a xlink:href="https://w3id.org/emmo/domain/magnetic-materials#EMMO_8a0c8d0a-3dc7-5f3f-ab20-24b38d188827" xlink:title="ExtrinsicMagneticProperties">
<ellipse fill="#ffffcc" stroke="black" stroke-width="2" cx="477.89" cy="-377" rx="155.9" ry="18"/>
<text xml:space="preserve" text-anchor="middle" x="477.89" y="-372.32" font-family="Times,serif" font-size="14.00">ExtrinsicMagneticProperties</text>
</a>
</g>
</g>
<!-- Referent -->
<g id="node2" class="node">
<title>Referent</title>
<g id="a_node2"><a xlink:href="https://w3id.org/emmo#EMMO_6f5af708_f825_4feb_a0d1_a8d813d3022b" xlink:title="Referent">
<ellipse fill="#ffffcc" stroke="red" cx="853.76" cy="-458" rx="54.89" ry="18"/>
<text xml:space="preserve" text-anchor="middle" x="853.76" y="-453.32" font-family="Times,serif" font-size="14.00">Referent</text>
</a>
</g>
</g>
<!-- ExtrinsicMagneticProperties&#45;&gt;Referent -->
<g id="edge1" class="edge">
<title>ExtrinsicMagneticProperties&#45;&gt;Referent</title>
<path fill="none" stroke="black" d="M548.73,-393.84C586.5,-402.8 633.99,-413.83 676.52,-423 715.7,-431.45 759.94,-440.23 794.3,-446.89"/>
<polygon fill="none" stroke="black" points="793.58,-450.31 804.06,-448.77 794.9,-443.44 793.58,-450.31"/>
<text xml:space="preserve" text-anchor="middle" x="687.39" y="-431.01" font-family="Times,serif" font-size="14.00">isA</text>
</g>
<!-- Property -->
<g id="node3" class="node">
<title>Property</title>
<g id="a_node3"><a xlink:href="https://w3id.org/emmo#EMMO_b7bcff25_ffc3_474e_9ab5_01b1664bd4ba" xlink:title="Property">
<ellipse fill="#ffffcc" stroke="red" cx="853.76" cy="-391" rx="55.42" ry="18"/>
<text xml:space="preserve" text-anchor="middle" x="853.76" y="-386.32" font-family="Times,serif" font-size="14.00">Property</text>
</a>
</g>
</g>
<!-- ExtrinsicMagneticProperties&#45;&gt;Property -->
<g id="edge2" class="edge">
<title>ExtrinsicMagneticProperties&#45;&gt;Property</title>
<path fill="none" stroke="black" d="M599.95,-365.06C631.95,-363.48 666.43,-363.17 698.27,-365.75 730.55,-368.37 766.26,-374.02 795.21,-379.32"/>
<polygon fill="none" stroke="black" points="794.39,-382.73 804.86,-381.12 795.68,-375.85 794.39,-382.73"/>
<text xml:space="preserve" text-anchor="middle" x="687.39" y="-369.7" font-family="Times,serif" font-size="14.00">isA</text>
</g>
<!-- MagneticHysteresisProperties -->
<g id="node4" class="node">
<title>MagneticHysteresisProperties</title>
<g id="a_node4"><a xlink:href="https://w3id.org/emmo/domain/magnetic-materials#EMMO_14a12902-9845-5be6-bd0b-511dcea31985" xlink:title="MagneticHysteresisProperties">
<ellipse fill="#ffffcc" stroke="red" cx="477.89" cy="-473" rx="164.32" ry="18"/>
<text xml:space="preserve" text-anchor="middle" x="477.89" y="-468.32" font-family="Times,serif" font-size="14.00">MagneticHysteresisProperties</text>
</a>
</g>
</g>
<!-- ExtrinsicMagneticProperties&#45;&gt;MagneticHysteresisProperties -->
<g id="edge3" class="edge">
<title>ExtrinsicMagneticProperties&#45;&gt;MagneticHysteresisProperties</title>
<path fill="none" stroke="orange" stroke-dasharray="1,5" d="M477.89,-395.97C477.89,-409.55 477.89,-428.11 477.89,-443.6"/>
<polygon fill="orange" stroke="orange" points="474.39,-443.21 477.89,-453.21 481.39,-443.21 474.39,-443.21"/>
<text xml:space="preserve" text-anchor="middle" x="466.26" y="-420.32" font-family="Times,serif" font-size="14.00">hasProperty exactly 1</text>
</g>
<!-- RelativePermeability -->
<g id="node5" class="node">
<title>RelativePermeability</title>
<g id="a_node5"><a xlink:href="https://w3id.org/emmo#EMMO_593ecc7c_250d_4e4d_8957_0170f3cc2154" xlink:title="RelativePermeability">
<ellipse fill="#ffffcc" stroke="red" cx="477.89" cy="-211" rx="115.92" ry="18"/>
<text xml:space="preserve" text-anchor="middle" x="477.89" y="-206.32" font-family="Times,serif" font-size="14.00">RelativePermeability</text>
</a>
</g>
</g>
<!-- ExtrinsicMagneticProperties&#45;&gt;RelativePermeability -->
<g id="edge4" class="edge">
<title>ExtrinsicMagneticProperties&#45;&gt;RelativePermeability</title>
<path fill="none" stroke="orange" stroke-dasharray="1,5" d="M352.02,-365.72C239.4,-350.87 101.01,-317.85 163.8,-247.38 221.28,-182.85 326.83,-183.93 399.6,-194.32"/>
<polygon fill="orange" stroke="orange" points="398.63,-197.72 409.04,-195.76 399.68,-190.8 398.63,-197.72"/>
<text xml:space="preserve" text-anchor="middle" x="180.63" y="-251.32" font-family="Times,serif" font-size="14.00">hasProperty min 0</text>
</g>
<!-- AbsolutePermeability -->
<g id="node6" class="node">
<title>AbsolutePermeability</title>
<g id="a_node6"><a xlink:href="https://w3id.org/emmo/domain/magnetic-materials#EMMO_98f7a685-fa5a-54f1-8504-f398047f3ab6" xlink:title="AbsolutePermeability">
<ellipse fill="#ffffcc" stroke="red" cx="477.89" cy="-144" rx="118.55" ry="18"/>
<text xml:space="preserve" text-anchor="middle" x="477.89" y="-139.32" font-family="Times,serif" font-size="14.00">AbsolutePermeability</text>
</a>
</g>
</g>
<!-- ExtrinsicMagneticProperties&#45;&gt;AbsolutePermeability -->
<g id="edge5" class="edge">
<title>ExtrinsicMagneticProperties&#45;&gt;AbsolutePermeability</title>
<path fill="none" stroke="orange" stroke-dasharray="1,5" d="M342.86,-367.35C326.95,-363.19 311.37,-357.56 297.26,-350 36.91,-210.58 133.27,-220.19 163.8,-185.38 219.39,-121.98 321.03,-119.67 393.64,-128.03"/>
<polygon fill="orange" stroke="orange" points="393.17,-131.49 403.53,-129.26 394.04,-124.55 393.17,-131.49"/>
<text xml:space="preserve" text-anchor="middle" x="180.63" y="-189.32" font-family="Times,serif" font-size="14.00">hasProperty min 0</text>
</g>
<!-- DemagnetizingFactor -->
<g id="node7" class="node">
<title>DemagnetizingFactor</title>
<g id="a_node7"><a xlink:href="https://w3id.org/emmo/domain/magnetic-materials#EMMO_0f2b5cc9-d00a-5030-8448-99ba6b7dfd1e" xlink:title="DemagnetizingFactor">
<ellipse fill="#ffffcc" stroke="red" cx="477.89" cy="-18" rx="119.08" ry="18"/>
<text xml:space="preserve" text-anchor="middle" x="477.89" y="-13.32" font-family="Times,serif" font-size="14.00">DemagnetizingFactor</text>
</a>
</g>
</g>
<!-- ExtrinsicMagneticProperties&#45;&gt;DemagnetizingFactor -->
<g id="edge6" class="edge">
<title>ExtrinsicMagneticProperties&#45;&gt;DemagnetizingFactor</title>
<path fill="none" stroke="orange" stroke-dasharray="1,5" d="M346.34,-366.82C329.34,-362.79 312.55,-357.34 297.26,-350 224.43,-315.06 196.17,-300.63 163.8,-226.62 126.19,-140.65 216.66,-111.07 297.26,-63 320.92,-48.89 348.85,-39.18 375.59,-32.51"/>
<polygon fill="orange" stroke="orange" points="376.16,-35.98 385.09,-30.28 374.55,-29.16 376.16,-35.98"/>
<text xml:space="preserve" text-anchor="middle" x="180.63" y="-213.32" font-family="Times,serif" font-size="14.00">hasProperty min 0</text>
</g>
<!-- SemioticEntity -->
<g id="node26" class="node">
<title>SemioticEntity</title>
<g id="a_node26"><a xlink:href="https://w3id.org/emmo#EMMO_b803f122_4acb_4064_9d71_c1e5fd091fc9" xlink:title="SemioticEntity">
<ellipse fill="#ffffcc" stroke="red" cx="1153.34" cy="-458" rx="85.93" ry="18"/>
<text xml:space="preserve" text-anchor="middle" x="1153.34" y="-453.32" font-family="Times,serif" font-size="14.00">SemioticEntity</text>
</a>
</g>
</g>
<!-- Referent&#45;&gt;SemioticEntity -->
<g id="edge28" class="edge">
<title>Referent&#45;&gt;SemioticEntity</title>
<path fill="none" stroke="black" d="M908.99,-458C949.81,-458 1006.84,-458 1055.43,-458"/>
<polygon fill="none" stroke="black" points="1055.43,-461.5 1065.43,-458 1055.43,-454.5 1055.43,-461.5"/>
<text xml:space="preserve" text-anchor="middle" x="1020.12" y="-461.95" font-family="Times,serif" font-size="14.00">isA</text>
</g>
<!-- CodedByStructure -->
<g id="node28" class="node">
<title>CodedByStructure</title>
<g id="a_node28"><a xlink:href="https://w3id.org/emmo#EMMO_38f31ba5_348f_4ac2_9a67_a62b5dd7aadd" xlink:title="CodedByStructure">
<ellipse fill="#ffffcc" stroke="red" cx="1153.34" cy="-391" rx="104.35" ry="18"/>
<text xml:space="preserve" text-anchor="middle" x="1153.34" y="-386.32" font-family="Times,serif" font-size="14.00">CodedByStructure</text>
</a>
</g>
</g>
<!-- Property&#45;&gt;CodedByStructure -->
<g id="edge31" class="edge">
<title>Property&#45;&gt;CodedByStructure</title>
<path fill="none" stroke="black" d="M909.34,-391C945.15,-391 993.33,-391 1037.34,-391"/>
<polygon fill="none" stroke="black" points="1037.22,-394.5 1047.22,-391 1037.22,-387.5 1037.22,-394.5"/>
<text xml:space="preserve" text-anchor="middle" x="1020.12" y="-394.95" font-family="Times,serif" font-size="14.00">isA</text>
</g>
<!-- MagneticHysteresisProperties&#45;&gt;Referent -->
<g id="edge9" class="edge">
<title>MagneticHysteresisProperties&#45;&gt;Referent</title>
<path fill="none" stroke="black" d="M633.11,-466.81C687.1,-464.65 744.84,-462.33 787.57,-460.62"/>
<polygon fill="none" stroke="black" points="787.56,-464.12 797.42,-460.22 787.28,-457.12 787.56,-464.12"/>
<text xml:space="preserve" text-anchor="middle" x="687.39" y="-469" font-family="Times,serif" font-size="14.00">isA</text>
</g>
<!-- MagneticHysteresisProperties&#45;&gt;Property -->
<g id="edge10" class="edge">
<title>MagneticHysteresisProperties&#45;&gt;Property</title>
<path fill="none" stroke="black" d="M518.04,-455.11C557.24,-438.12 619.72,-413.47 676.52,-401.75 712.5,-394.33 753.43,-391.5 786.78,-390.59"/>
<polygon fill="none" stroke="black" points="786.8,-394.09 796.73,-390.37 786.65,-387.09 786.8,-394.09"/>
<text xml:space="preserve" text-anchor="middle" x="687.39" y="-405.7" font-family="Times,serif" font-size="14.00">isA</text>
</g>
<!-- SaturationMagneticPolarization -->
<g id="node10" class="node">
<title>SaturationMagneticPolarization</title>
<g id="a_node10"><a xlink:href="https://w3id.org/emmo/domain/magnetic-materials#EMMO_8ae216ed-64f9-55a0-b46f-27be41dda192" xlink:title="SaturationMagneticPolarization">
<ellipse fill="#ffffcc" stroke="red" cx="477.89" cy="-1107" rx="170.63" ry="18"/>
<text xml:space="preserve" text-anchor="middle" x="477.89" y="-1102.33" font-family="Times,serif" font-size="14.00">SaturationMagneticPolarization</text>
</a>
</g>
</g>
<!-- MagneticHysteresisProperties&#45;&gt;SaturationMagneticPolarization -->
<g id="edge11" class="edge">
<title>MagneticHysteresisProperties&#45;&gt;SaturationMagneticPolarization</title>
<path fill="none" stroke="orange" stroke-dasharray="1,5" d="M411.27,-489.88C373.07,-502.72 326.95,-524.11 297.26,-558 163.53,-710.62 66.36,-816.63 163.8,-994.62 195.21,-1052.01 260.06,-1080.64 322.72,-1094.7"/>
<polygon fill="orange" stroke="orange" points="321.99,-1098.13 332.5,-1096.77 323.44,-1091.28 321.99,-1098.13"/>
<text xml:space="preserve" text-anchor="middle" x="180.63" y="-981.33" font-family="Times,serif" font-size="14.00">hasProperty min 0</text>
</g>
<!-- CoercivityBHcExternal -->
<g id="node11" class="node">
<title>CoercivityBHcExternal</title>
<g id="a_node11"><a xlink:href="https://w3id.org/emmo/domain/magnetic-materials#EMMO_a4bc4536-f381-5bcd-b6ca-34fb1a913efd" xlink:title="CoercivityBHcExternal">
<ellipse fill="#ffffcc" stroke="red" cx="477.89" cy="-1053" rx="126.44" ry="18"/>
<text xml:space="preserve" text-anchor="middle" x="477.89" y="-1048.33" font-family="Times,serif" font-size="14.00">CoercivityBHcExternal</text>
</a>
</g>
</g>
<!-- MagneticHysteresisProperties&#45;&gt;CoercivityBHcExternal -->
<g id="edge12" class="edge">
<title>MagneticHysteresisProperties&#45;&gt;CoercivityBHcExternal</title>
<path fill="none" stroke="orange" stroke-dasharray="1,5" d="M401.79,-456.64C328.96,-445.96 221.86,-444.2 163.8,-509.38 84.92,-597.91 208.82,-947.01 297.26,-1026 309.55,-1036.98 324.31,-1044.62 340.01,-1049.81"/>
<polygon fill="orange" stroke="orange" points="338.99,-1053.16 349.57,-1052.61 340.95,-1046.44 338.99,-1053.16"/>
<text xml:space="preserve" text-anchor="middle" x="180.63" y="-513.33" font-family="Times,serif" font-size="14.00">hasProperty min 0</text>
</g>
<!-- LoopSquarenessFactorInternal -->
<g id="node12" class="node">
<title>LoopSquarenessFactorInternal</title>
<g id="a_node12"><a xlink:href="https://w3id.org/emmo/domain/magnetic-materials#EMMO_4746f629-2b2f-5d43-b698-a81519eb2b2b" xlink:title="LoopSquarenessFactorInternal">
<ellipse fill="#ffffcc" stroke="red" cx="477.89" cy="-999" rx="165.9" ry="18"/>
<text xml:space="preserve" text-anchor="middle" x="477.89" y="-994.33" font-family="Times,serif" font-size="14.00">LoopSquarenessFactorInternal</text>
</a>
</g>
</g>
<!-- MagneticHysteresisProperties&#45;&gt;LoopSquarenessFactorInternal -->
<g id="edge13" class="edge">
<title>MagneticHysteresisProperties&#45;&gt;LoopSquarenessFactorInternal</title>
<path fill="none" stroke="orange" stroke-dasharray="1,5" d="M414.46,-490.06C376.22,-503.17 328.95,-524.77 297.26,-558 185.32,-675.36 81.65,-757.79 163.8,-897.62 194.81,-950.41 254.65,-976.8 313.85,-989.62"/>
<polygon fill="orange" stroke="orange" points="312.91,-993 323.41,-991.56 314.31,-986.14 312.91,-993"/>
<text xml:space="preserve" text-anchor="middle" x="180.63" y="-884.33" font-family="Times,serif" font-size="14.00">hasProperty min 0</text>
</g>
<!-- SwitchingFieldCoercivity -->
<g id="node13" class="node">
<title>SwitchingFieldCoercivity</title>
<g id="a_node13"><a xlink:href="https://w3id.org/emmo/domain/magnetic-materials#EMMO_bc54c47f-8560-516a-b95b-cce9f1b7344f" xlink:title="SwitchingFieldCoercivity">
<ellipse fill="#ffffcc" stroke="red" cx="477.89" cy="-945" rx="137.49" ry="18"/>
<text xml:space="preserve" text-anchor="middle" x="477.89" y="-940.33" font-family="Times,serif" font-size="14.00">SwitchingFieldCoercivity</text>
</a>
</g>
</g>
<!-- MagneticHysteresisProperties&#45;&gt;SwitchingFieldCoercivity -->
<g id="edge14" class="edge">
<title>MagneticHysteresisProperties&#45;&gt;SwitchingFieldCoercivity</title>
<path fill="none" stroke="orange" stroke-dasharray="1,5" d="M350.14,-461.33C284.04,-462.89 208.12,-478.06 163.8,-531.38 47.59,-671.17 156.62,-802.82 297.26,-918 307.6,-926.48 319.45,-932.89 332.01,-937.7"/>
<polygon fill="orange" stroke="orange" points="330.69,-940.94 341.29,-940.87 332.96,-934.32 330.69,-940.94"/>
<text xml:space="preserve" text-anchor="middle" x="180.63" y="-535.33" font-family="Times,serif" font-size="14.00">hasProperty min 0</text>
</g>
<!-- MaximumEnergyProduct -->
<g id="node14" class="node">
<title>MaximumEnergyProduct</title>
<g id="a_node14"><a xlink:href="https://w3id.org/emmo/domain/magnetic-materials#EMMO_e1028129-c23e-57ac-9174-2f34ddbf3926" xlink:title="MaximumEnergyProduct">
<ellipse fill="#ffffcc" stroke="red" cx="477.89" cy="-891" rx="136.96" ry="18"/>
<text xml:space="preserve" text-anchor="middle" x="477.89" y="-886.33" font-family="Times,serif" font-size="14.00">MaximumEnergyProduct</text>
</a>
</g>
</g>
<!-- MagneticHysteresisProperties&#45;&gt;MaximumEnergyProduct -->
<g id="edge15" class="edge">
<title>MagneticHysteresisProperties&#45;&gt;MaximumEnergyProduct</title>
<path fill="none" stroke="orange" stroke-dasharray="1,5" d="M419.22,-490.23C380.98,-503.78 331.93,-525.81 297.26,-558 203.91,-644.67 92.04,-706.38 163.8,-811.62 200.79,-865.87 269.36,-887.15 333.01,-894.25"/>
<polygon fill="orange" stroke="orange" points="332.61,-897.73 342.91,-895.23 333.3,-890.76 332.61,-897.73"/>
<text xml:space="preserve" text-anchor="middle" x="180.63" y="-798.33" font-family="Times,serif" font-size="14.00">hasProperty min 0</text>
</g>
<!-- RemanentMagneticPolarization -->
<g id="node15" class="node">
<title>RemanentMagneticPolarization</title>
<g id="a_node15"><a xlink:href="https://w3id.org/emmo/domain/magnetic-materials#EMMO_538226cb-bebb-53e5-bf37-0f12226228be" xlink:title="RemanentMagneticPolarization">
<ellipse fill="#ffffcc" stroke="red" cx="477.89" cy="-837" rx="168.53" ry="18"/>
<text xml:space="preserve" text-anchor="middle" x="477.89" y="-832.33" font-family="Times,serif" font-size="14.00">RemanentMagneticPolarization</text>
</a>
</g>
</g>
<!-- MagneticHysteresisProperties&#45;&gt;RemanentMagneticPolarization -->
<g id="edge16" class="edge">
<title>MagneticHysteresisProperties&#45;&gt;RemanentMagneticPolarization</title>
<path fill="none" stroke="orange" stroke-dasharray="1,5" d="M314.75,-475.52C257.98,-485.31 199.61,-507.25 163.8,-553.38 147.11,-574.88 77.47,-657.92 297.26,-810 305.03,-815.38 313.45,-819.88 322.25,-823.62"/>
<polygon fill="orange" stroke="orange" points="320.75,-826.79 331.34,-827.12 323.27,-820.26 320.75,-826.79"/>
<text xml:space="preserve" text-anchor="middle" x="180.63" y="-557.33" font-family="Times,serif" font-size="14.00">hasProperty min 0</text>
</g>
<!-- CoercivityHc -->
<g id="node16" class="node">
<title>CoercivityHc</title>
<g id="a_node16"><a xlink:href="https://w3id.org/emmo/domain/magnetic-materials#EMMO_0d67d6c5-a8a7-57d4-930a-e99412baa2c2" xlink:title="CoercivityHc">
<ellipse fill="#ffffcc" stroke="red" cx="477.89" cy="-783" rx="75.94" ry="18"/>
<text xml:space="preserve" text-anchor="middle" x="477.89" y="-778.33" font-family="Times,serif" font-size="14.00">CoercivityHc</text>
</a>
</g>
</g>
<!-- MagneticHysteresisProperties&#45;&gt;CoercivityHc -->
<g id="edge17" class="edge">
<title>MagneticHysteresisProperties&#45;&gt;CoercivityHc</title>
<path fill="none" stroke="orange" stroke-dasharray="1,5" d="M424.62,-490.43C308.99,-530.9 53,-636.19 151.8,-746.62 216.01,-818.4 337.64,-811.24 412.84,-798.09"/>
<polygon fill="orange" stroke="orange" points="413.35,-801.56 422.55,-796.31 412.08,-794.68 413.35,-801.56"/>
<text xml:space="preserve" text-anchor="middle" x="180.63" y="-733.33" font-family="Times,serif" font-size="14.00">hasProperty exactly 1</text>
</g>
<!-- LoopSquareness -->
<g id="node17" class="node">
<title>LoopSquareness</title>
<g id="a_node17"><a xlink:href="https://w3id.org/emmo/domain/magnetic-materials#EMMO_f3d81518-1594-5eb0-bd68-42466e0c37d8" xlink:title="LoopSquareness">
<ellipse fill="#ffffcc" stroke="red" cx="477.89" cy="-679" rx="93.82" ry="18"/>
<text xml:space="preserve" text-anchor="middle" x="477.89" y="-674.33" font-family="Times,serif" font-size="14.00">LoopSquareness</text>
</a>
</g>
</g>
<!-- MagneticHysteresisProperties&#45;&gt;LoopSquareness -->
<g id="edge18" class="edge">
<title>MagneticHysteresisProperties&#45;&gt;LoopSquareness</title>
<path fill="none" stroke="orange" stroke-dasharray="1,5" d="M333.11,-481.8C227.31,-494 110.83,-523.13 163.8,-592.62 211.96,-655.81 301.85,-675.66 373.16,-680.71"/>
<polygon fill="orange" stroke="orange" points="372.73,-684.19 382.93,-681.3 373.16,-677.2 372.73,-684.19"/>
<text xml:space="preserve" text-anchor="middle" x="180.63" y="-579.33" font-family="Times,serif" font-size="14.00">hasProperty min 0</text>
</g>
<!-- KneeField -->
<g id="node18" class="node">
<title>KneeField</title>
<g id="a_node18"><a xlink:href="https://w3id.org/emmo/domain/magnetic-materials#EMMO_ad0c038b-a09a-560c-b149-066de8f8e307" xlink:title="KneeField">
<ellipse fill="#ffffcc" stroke="red" cx="477.89" cy="-585" rx="61.73" ry="18"/>
<text xml:space="preserve" text-anchor="middle" x="477.89" y="-580.33" font-family="Times,serif" font-size="14.00">KneeField</text>
</a>
</g>
</g>
<!-- MagneticHysteresisProperties&#45;&gt;KneeField -->
<g id="edge19" class="edge">
<title>MagneticHysteresisProperties&#45;&gt;KneeField</title>
<path fill="none" stroke="orange" stroke-dasharray="1,5" d="M477.89,-491.49C477.89,-508.86 477.89,-535.14 477.89,-555.42"/>
<polygon fill="orange" stroke="orange" points="474.39,-555.34 477.89,-565.34 481.39,-555.34 474.39,-555.34"/>
<text xml:space="preserve" text-anchor="middle" x="466.26" y="-524.33" font-family="Times,serif" font-size="14.00">hasProperty min 0</text>
</g>
<!-- CoercivityBHc -->
<g id="node19" class="node">
<title>CoercivityBHc</title>
<g id="a_node19"><a xlink:href="https://w3id.org/emmo/domain/magnetic-materials#EMMO_69772e86-d7fb-5b43-9cd4-2f0770c6701f" xlink:title="CoercivityBHc">
<ellipse fill="#ffffcc" stroke="red" cx="477.89" cy="-1431" rx="83.3" ry="18"/>
<text xml:space="preserve" text-anchor="middle" x="477.89" y="-1426.33" font-family="Times,serif" font-size="14.00">CoercivityBHc</text>
</a>
</g>
</g>
<!-- MagneticHysteresisProperties&#45;&gt;CoercivityBHc -->
<g id="edge20" class="edge">
<title>MagneticHysteresisProperties&#45;&gt;CoercivityBHc</title>
<path fill="none" stroke="orange" stroke-dasharray="1,5" d="M417.46,-490.14C322.72,-521.06 151.21,-595.28 163.8,-724.62 193.6,-1030.89 74.77,-1191.43 297.26,-1404 321.77,-1427.42 357.31,-1435.99 390.4,-1438.02"/>
<polygon fill="orange" stroke="orange" points="389.86,-1441.5 399.99,-1438.41 390.14,-1434.51 389.86,-1441.5"/>
<text xml:space="preserve" text-anchor="middle" x="180.63" y="-711.33" font-family="Times,serif" font-size="14.00">hasProperty min 0</text>
</g>
<!-- CoercivityHcExternal -->
<g id="node20" class="node">
<title>CoercivityHcExternal</title>
<g id="a_node20"><a xlink:href="https://w3id.org/emmo/domain/magnetic-materials#EMMO_fe101d1d-f1f7-54f8-886b-fa6d6052ce98" xlink:title="CoercivityHcExternal">
<ellipse fill="#ffffcc" stroke="red" cx="477.89" cy="-1377" rx="119.08" ry="18"/>
<text xml:space="preserve" text-anchor="middle" x="477.89" y="-1372.33" font-family="Times,serif" font-size="14.00">CoercivityHcExternal</text>
</a>
</g>
</g>
<!-- MagneticHysteresisProperties&#45;&gt;CoercivityHcExternal -->
<g id="edge21" class="edge">
<title>MagneticHysteresisProperties&#45;&gt;CoercivityHcExternal</title>
<path fill="none" stroke="orange" stroke-dasharray="1,5" d="M363.54,-486.2C293.21,-500.88 208.3,-531.89 163.8,-597.38 68.33,-737.86 175.29,-1231.78 297.26,-1350 311.76,-1364.06 330.23,-1372.79 349.79,-1377.98"/>
<polygon fill="orange" stroke="orange" points="348.75,-1381.33 359.28,-1380.17 350.33,-1374.51 348.75,-1381.33"/>
<text xml:space="preserve" text-anchor="middle" x="180.63" y="-601.33" font-family="Times,serif" font-size="14.00">hasProperty min 0</text>
</g>
<!-- Remanence -->
<g id="node21" class="node">
<title>Remanence</title>
<g id="a_node21"><a xlink:href="https://w3id.org/emmo/domain/magnetic-materials#EMMO_8fc78216-4859-53c2-b41e-e38062b04054" xlink:title="Remanence">
<ellipse fill="#ffffcc" stroke="red" cx="477.89" cy="-1323" rx="69.1" ry="18"/>
<text xml:space="preserve" text-anchor="middle" x="477.89" y="-1318.33" font-family="Times,serif" font-size="14.00">Remanence</text>
</a>
</g>
</g>
<!-- MagneticHysteresisProperties&#45;&gt;Remanence -->
<g id="edge22" class="edge">
<title>MagneticHysteresisProperties&#45;&gt;Remanence</title>
<path fill="none" stroke="orange" stroke-dasharray="1,5" d="M403.1,-489.43C302.29,-516.34 136.94,-579.58 151.8,-702.62 184.36,-972.2 96.63,-1113.03 297.26,-1296 325.16,-1321.45 366.2,-1329.06 402.11,-1329.93"/>
<polygon fill="orange" stroke="orange" points="402.04,-1333.43 412.06,-1329.98 402.08,-1326.43 402.04,-1333.43"/>
<text xml:space="preserve" text-anchor="middle" x="180.63" y="-689.33" font-family="Times,serif" font-size="14.00">hasProperty exactly 1</text>
</g>
<!-- SwitchingFieldCoercivityExternal -->
<g id="node22" class="node">
<title>SwitchingFieldCoercivityExternal</title>
<g id="a_node22"><a xlink:href="https://w3id.org/emmo/domain/magnetic-materials#EMMO_234a6193-f057-556f-bfcd-38efde3aafc4" xlink:title="SwitchingFieldCoercivityExternal">
<ellipse fill="#ffffcc" stroke="red" cx="477.89" cy="-1269" rx="180.63" ry="18"/>
<text xml:space="preserve" text-anchor="middle" x="477.89" y="-1264.33" font-family="Times,serif" font-size="14.00">SwitchingFieldCoercivityExternal</text>
</a>
</g>
</g>
<!-- MagneticHysteresisProperties&#45;&gt;SwitchingFieldCoercivityExternal -->
<g id="edge23" class="edge">
<title>MagneticHysteresisProperties&#45;&gt;SwitchingFieldCoercivityExternal</title>
<path fill="none" stroke="orange" stroke-dasharray="1,5" d="M386.25,-488.27C312.12,-505.98 212.37,-543.15 163.8,-619.38 87.76,-738.71 193.82,-1145.43 297.26,-1242 302.16,-1246.57 307.48,-1250.58 313.12,-1254.07"/>
<polygon fill="orange" stroke="orange" points="311.13,-1256.97 321.57,-1258.75 314.52,-1250.85 311.13,-1256.97"/>
<text xml:space="preserve" text-anchor="middle" x="180.63" y="-623.33" font-family="Times,serif" font-size="14.00">hasProperty min 0</text>
</g>
<!-- LoopSquarenessFactorExternal -->
<g id="node23" class="node">
<title>LoopSquarenessFactorExternal</title>
<g id="a_node23"><a xlink:href="https://w3id.org/emmo/domain/magnetic-materials#EMMO_8108b720-e94e-5201-86e6-1434344cffca" xlink:title="LoopSquarenessFactorExternal">
<ellipse fill="#ffffcc" stroke="red" cx="477.89" cy="-1215" rx="169.06" ry="18"/>
<text xml:space="preserve" text-anchor="middle" x="477.89" y="-1210.33" font-family="Times,serif" font-size="14.00">LoopSquarenessFactorExternal</text>
</a>
</g>
</g>
<!-- MagneticHysteresisProperties&#45;&gt;LoopSquarenessFactorExternal -->
<g id="edge24" class="edge">
<title>MagneticHysteresisProperties&#45;&gt;LoopSquarenessFactorExternal</title>
<path fill="none" stroke="orange" stroke-dasharray="1,5" d="M411.71,-489.89C334.43,-513.73 211.14,-565.68 163.8,-663.38 111.34,-771.63 207.69,-1107.69 297.26,-1188 303.12,-1193.26 309.56,-1197.76 316.39,-1201.58"/>
<polygon fill="orange" stroke="orange" points="314.8,-1204.7 325.31,-1206.05 317.93,-1198.44 314.8,-1204.7"/>
<text xml:space="preserve" text-anchor="middle" x="180.63" y="-667.33" font-family="Times,serif" font-size="14.00">hasProperty min 0</text>
</g>
<!-- KneeFieldExternal -->
<g id="node24" class="node">
<title>KneeFieldExternal</title>
<g id="a_node24"><a xlink:href="https://w3id.org/emmo/domain/magnetic-materials#EMMO_45a36799-2309-5097-969f-4e5c002ae2f0" xlink:title="KneeFieldExternal">
<ellipse fill="#ffffcc" stroke="red" cx="477.89" cy="-1161" rx="104.87" ry="18"/>
<text xml:space="preserve" text-anchor="middle" x="477.89" y="-1156.33" font-family="Times,serif" font-size="14.00">KneeFieldExternal</text>
</a>
</g>
</g>
<!-- MagneticHysteresisProperties&#45;&gt;KneeFieldExternal -->
<g id="edge25" class="edge">
<title>MagneticHysteresisProperties&#45;&gt;KneeFieldExternal</title>
<path fill="none" stroke="orange" stroke-dasharray="1,5" d="M400.54,-489.26C324.22,-509.98 212.17,-554.12 163.8,-641.38 108.81,-740.57 212.19,-1058.98 297.26,-1134 315.92,-1150.46 340.12,-1159.36 364.7,-1163.8"/>
<polygon fill="orange" stroke="orange" points="364.09,-1167.25 374.51,-1165.31 365.15,-1160.33 364.09,-1167.25"/>
<text xml:space="preserve" text-anchor="middle" x="180.63" y="-645.33" font-family="Times,serif" font-size="14.00">hasProperty min 0</text>
</g>
<!-- ElectromagneticQuantity -->
<g id="node8" class="node">
<title>ElectromagneticQuantity</title>
<g id="a_node8"><a xlink:href="https://w3id.org/emmo#EMMO_af794e9d_dc7d_4756_83e1_2cd0e2ec864e" xlink:title="ElectromagneticQuantity">
<ellipse fill="#ffffcc" stroke="red" cx="853.76" cy="-137" rx="137.49" ry="18"/>
<text xml:space="preserve" text-anchor="middle" x="853.76" y="-132.32" font-family="Times,serif" font-size="14.00">ElectromagneticQuantity</text>
</a>
</g>
</g>
<!-- RelativePermeability&#45;&gt;ElectromagneticQuantity -->
<g id="edge26" class="edge">
<title>RelativePermeability&#45;&gt;ElectromagneticQuantity</title>
<path fill="none" stroke="black" d="M550.97,-196.73C611.95,-184.66 699.55,-167.32 764.68,-154.43"/>
<polygon fill="none" stroke="black" points="765.13,-157.91 774.26,-152.54 763.77,-151.05 765.13,-157.91"/>
<text xml:space="preserve" text-anchor="middle" x="687.39" y="-175.73" font-family="Times,serif" font-size="14.00">isA</text>
</g>
<!-- RatioQuantity -->
<g id="node25" class="node">
<title>RatioQuantity</title>
<g id="a_node25"><a xlink:href="https://w3id.org/emmo#EMMO_faab3f84_e475_4a46_af9c_7d249f0b9aef" xlink:title="RatioQuantity">
<ellipse fill="#ffffcc" stroke="red" cx="853.76" cy="-217" rx="81.2" ry="18"/>
<text xml:space="preserve" text-anchor="middle" x="853.76" y="-212.32" font-family="Times,serif" font-size="14.00">RatioQuantity</text>
</a>
</g>
</g>
<!-- RelativePermeability&#45;&gt;RatioQuantity -->
<g id="edge27" class="edge">
<title>RelativePermeability&#45;&gt;RatioQuantity</title>
<path fill="none" stroke="black" d="M593.6,-212.84C647.38,-213.7 710.59,-214.72 761.11,-215.53"/>
<polygon fill="none" stroke="black" points="760.78,-219.02 770.84,-215.69 760.9,-212.03 760.78,-219.02"/>
<text xml:space="preserve" text-anchor="middle" x="687.39" y="-218.31" font-family="Times,serif" font-size="14.00">isA</text>
</g>
<!-- AbsolutePermeability&#45;&gt;ElectromagneticQuantity -->
<g id="edge7" class="edge">
<title>AbsolutePermeability&#45;&gt;ElectromagneticQuantity</title>
<path fill="none" stroke="black" d="M593.83,-139.83C620.94,-139 649.75,-138.23 676.52,-137.75 685.75,-137.58 695.26,-137.45 704.85,-137.33"/>
<polygon fill="none" stroke="black" points="704.65,-140.84 714.62,-137.23 704.58,-133.84 704.65,-140.84"/>
<text xml:space="preserve" text-anchor="middle" x="687.39" y="-141.7" font-family="Times,serif" font-size="14.00">isA</text>
</g>
<!-- PermeabilityUnit -->
<g id="node9" class="node">
<title>PermeabilityUnit</title>
<g id="a_node9"><a xlink:href="https://w3id.org/emmo#EMMO_fa9c8c56_314f_4a5a_a71d_bae66446b185" xlink:title="PermeabilityUnit">
<ellipse fill="#ffffcc" stroke="red" cx="477.89" cy="-323" rx="96.98" ry="18"/>
<text xml:space="preserve" text-anchor="middle" x="477.89" y="-318.32" font-family="Times,serif" font-size="14.00">PermeabilityUnit</text>
</a>
</g>
</g>
<!-- AbsolutePermeability&#45;&gt;PermeabilityUnit -->
<g id="edge8" class="edge">
<title>AbsolutePermeability&#45;&gt;PermeabilityUnit</title>
<path fill="none" stroke="orange" stroke-dasharray="5,2" d="M372.39,-152.46C244.66,-166.56 55.51,-202.18 131.55,-286.62 199.65,-362.25 327.94,-354.15 407.82,-339.73"/>
<polygon fill="orange" stroke="orange" points="408.09,-343.24 417.27,-337.94 406.79,-336.36 408.09,-343.24"/>
<text xml:space="preserve" text-anchor="middle" x="180.63" y="-273.32" font-family="Times,serif" font-size="14.00">hasMeasurementUnit some</text>
</g>
<!-- DemagnetizingFactor&#45;&gt;ElectromagneticQuantity -->
<g id="edge29" class="edge">
<title>DemagnetizingFactor&#45;&gt;ElectromagneticQuantity</title>
<path fill="none" stroke="black" d="M546.8,-33.01C580.64,-40.99 622.02,-51.52 658.52,-63 707.45,-78.39 761.92,-99.5 800.7,-115.24"/>
<polygon fill="none" stroke="black" points="799.22,-118.41 809.8,-118.95 801.87,-111.93 799.22,-118.41"/>
<text xml:space="preserve" text-anchor="middle" x="687.39" y="-79.51" font-family="Times,serif" font-size="14.00">isA</text>
</g>
<!-- DimensionlessUnit -->
<g id="node27" class="node">
<title>DimensionlessUnit</title>
<g id="a_node27"><a xlink:href="https://w3id.org/emmo#EMMO_3227b821_26a5_4c7c_9c01_5c24483e0bd0" xlink:title="DimensionlessUnit">
<ellipse fill="#ffffcc" stroke="red" cx="477.89" cy="-90" rx="105.92" ry="18"/>
<text xml:space="preserve" text-anchor="middle" x="477.89" y="-85.33" font-family="Times,serif" font-size="14.00">DimensionlessUnit</text>
</a>
</g>
</g>
<!-- DemagnetizingFactor&#45;&gt;DimensionlessUnit -->
<g id="edge30" class="edge">
<title>DemagnetizingFactor&#45;&gt;DimensionlessUnit</title>
<path fill="none" stroke="orange" stroke-dasharray="5,2" d="M477.89,-36.17C477.89,-43.45 477.89,-52.02 477.89,-60.17"/>
<polygon fill="orange" stroke="orange" points="474.39,-60.07 477.89,-70.07 481.39,-60.07 474.39,-60.07"/>
<text xml:space="preserve" text-anchor="middle" x="466.26" y="-49.33" font-family="Times,serif" font-size="14.00">hasMeasurementUnit some</text>
</g>
<!-- key1 -->
<g id="node29" class="node">
<title>key1</title>
<text xml:space="preserve" text-anchor="start" x="531.51" y="-1520.58" font-family="Times,serif" font-weight="bold" font-size="14.00">isA</text>
<text xml:space="preserve" text-anchor="start" x="400.26" y="-1498.33" font-family="Times,serif" font-size="14.00">hasMeasurementUnit</text>
<text xml:space="preserve" text-anchor="start" x="459.51" y="-1478.08" font-family="Times,serif" font-weight="bold" font-size="14.00">hasProperty</text>
</g>
<!-- key2 -->
<g id="node30" class="node">
<title>key2</title>
<text xml:space="preserve" text-anchor="start" x="851.51" y="-1519.58" font-family="Times,serif" font-size="14.00"> </text>
<text xml:space="preserve" text-anchor="start" x="851.51" y="-1498.33" font-family="Times,serif" font-size="14.00"> </text>
<text xml:space="preserve" text-anchor="start" x="851.51" y="-1477.08" font-family="Times,serif" font-size="14.00"> </text>
</g>
<!-- key1&#45;&gt;key2 -->
<g id="edge32" class="edge">
<title>key1:e&#45;&gt;key2:w</title>
<path fill="none" stroke="black" d="M558.51,-1524.25C683.5,-1524.25 717.58,-1524.25 837.06,-1524.25"/>
<polygon fill="none" stroke="black" points="836.99,-1527.75 846.99,-1524.25 836.99,-1520.75 836.99,-1527.75"/>
</g>
<!-- key1&#45;&gt;key2 -->
<g id="edge33" class="edge">
<title>key1:e&#45;&gt;key2:w</title>
<path fill="none" stroke="orange" stroke-dasharray="5,2" d="M558.51,-1503C683.5,-1503 717.58,-1503 837.06,-1503"/>
<polygon fill="orange" stroke="orange" points="836.99,-1506.5 846.99,-1503 836.99,-1499.5 836.99,-1506.5"/>
</g>
<!-- key1&#45;&gt;key2 -->
<g id="edge34" class="edge">
<title>key1:e&#45;&gt;key2:w</title>
<path fill="none" stroke="orange" stroke-dasharray="1,5" d="M558.51,-1481.75C683.5,-1481.75 717.58,-1481.75 837.06,-1481.75"/>
<polygon fill="orange" stroke="orange" points="836.99,-1485.25 846.99,-1481.75 836.99,-1478.25 836.99,-1485.25"/>
</g>
</g>
</svg>
