<?xml version="1.0" encoding="UTF-8" standalone="no"?>
<!DOCTYPE svg PUBLIC "-//W3C//DTD SVG 1.1//EN"
 "http://www.w3.org/Graphics/SVG/1.1/DTD/svg11.dtd">
<!-- Generated by graphviz version 14.1.2 (20260126.1125)
 -->
<!-- Pages: 1 -->
<svg width="1215pt" height="312pt"
 viewBox="0.00 0.00 1215.00 312.00" xmlns="http://www.w3.org/2000/svg" xmlns:xlink="http://www.w3.org/1999/xlink">
<g id="graph0" class="graph" transform="scale(1 1) rotate(0) translate(4 308.25)">
<polygon fill="white" stroke="none" points="-4,4 -4,-308.25 1210.56,-308.25 1210.56,4 -4,4"/>
<!-- GranularMicrostructure -->
<g id="node1" class="node">
<title>GranularMicrostructure</title>
<g id="a_node1"><a xlink:href="https://w3id.org/emmo/domain/magnetic-materials#EMMO_cf5261fe-bdab-5c7b-b6a8-f9a313687bc2" xlink:title="GranularMicrostructure">
<ellipse fill="#ffffcc" stroke="black" stroke-width="2" cx="576.7" cy="-218" rx="131.7" ry="18"/>
<text xml:space="preserve" text-anchor="middle" x="576.7" y="-213.32" font-family="Times,serif" font-size="14.00">GranularMicrostructure</text>
</a>
</g>
</g>
<!-- Material -->
<g id="node2" class="node">
<title>Material</title>
<g id="a_node2"><a xlink:href="https://w3id.org/emmo#EMMO_4207e895_8b83_4318_996a_72cfb32acd94" xlink:title="Material">
<ellipse fill="#ffffcc" stroke="red" cx="866.81" cy="-205" rx="53.84" ry="18"/>
<text xml:space="preserve" text-anchor="middle" x="866.81" y="-200.32" font-family="Times,serif" font-size="14.00">Material</text>
</a>
</g>
</g>
<!-- GranularMicrostructure&#45;&gt;Material -->
<g id="edge1" class="edge">
<title>GranularMicrostructure&#45;&gt;Material</title>
<path fill="none" stroke="black" d="M703.23,-212.34C737.37,-210.8 772.92,-209.19 802.04,-207.88"/>
<polygon fill="none" stroke="black" points="801.93,-211.39 811.76,-207.44 801.62,-204.39 801.93,-211.39"/>
<text xml:space="preserve" text-anchor="middle" x="737.28" y="-215.06" font-family="Times,serif" font-size="14.00">isA</text>
</g>
<!-- MainMagneticPhase -->
<g id="node3" class="node">
<title>MainMagneticPhase</title>
<g id="a_node3"><a xlink:href="https://w3id.org/emmo/domain/magnetic-materials#EMMO_8894d78f-5d53-540e-a278-17c93e1be2ab" xlink:title="MainMagneticPhase">
<ellipse fill="#ffffcc" stroke="red" cx="576.7" cy="-38" rx="113.29" ry="18"/>
<text xml:space="preserve" text-anchor="middle" x="576.7" y="-33.33" font-family="Times,serif" font-size="14.00">MainMagneticPhase</text>
</a>
</g>
</g>
<!-- GranularMicrostructure&#45;&gt;MainMagneticPhase -->
<g id="edge2" class="edge">
<title>GranularMicrostructure&#45;&gt;MainMagneticPhase</title>
<path fill="none" stroke="darkgreen" d="M465.28,-207.79C363.95,-194.09 237.91,-163.24 292.45,-96.38 333.14,-46.48 404.04,-31.85 464.85,-29.72"/>
<polygon fill="darkgreen" stroke="darkgreen" points="464.64,-33.22 474.56,-29.49 464.48,-26.22 464.64,-33.22"/>
<text xml:space="preserve" text-anchor="middle" x="340" y="-100.33" font-family="Times,serif" font-size="14.00">hasSpatialPart exactly 1</text>
</g>
<!-- GrainBoundaryPhase -->
<g id="node4" class="node">
<title>GrainBoundaryPhase</title>
<g id="a_node4"><a xlink:href="https://w3id.org/emmo/domain/magnetic-materials#EMMO_871868f1-1486-55df-b351-23a4076f1bb3" xlink:title="GrainBoundaryPhase">
<ellipse fill="#ffffcc" stroke="red" cx="117.5" cy="-138" rx="117.5" ry="18"/>
<text xml:space="preserve" text-anchor="middle" x="117.5" y="-133.32" font-family="Times,serif" font-size="14.00">GrainBoundaryPhase</text>
</a>
</g>
</g>
<!-- GranularMicrostructure&#45;&gt;GrainBoundaryPhase -->
<g id="edge3" class="edge">
<title>GranularMicrostructure&#45;&gt;GrainBoundaryPhase</title>
<path fill="none" stroke="darkgreen" d="M492.14,-203.38C411.58,-189.28 290.08,-168.02 207.68,-153.61"/>
<polygon fill="darkgreen" stroke="darkgreen" points="208.52,-150.2 198.06,-151.92 207.31,-157.09 208.52,-150.2"/>
<text xml:space="preserve" text-anchor="middle" x="340" y="-193.79" font-family="Times,serif" font-size="14.00">hasSpatialPart min 0</text>
</g>
<!-- SecondaryPhase -->
<g id="node5" class="node">
<title>SecondaryPhase</title>
<g id="a_node5"><a xlink:href="https://w3id.org/emmo/domain/magnetic-materials#EMMO_5394673b-027e-5afc-bc6f-f72df5ed40a1" xlink:title="SecondaryPhase">
<ellipse fill="#ffffcc" stroke="red" cx="576.7" cy="-138" rx="93.82" ry="18"/>
<text xml:space="preserve" text-anchor="middle" x="576.7" y="-133.32" font-family="Times,serif" font-size="14.00">SecondaryPhase</text>
</a>
</g>
</g>
<!-- GranularMicrostructure&#45;&gt;SecondaryPhase -->
<g id="edge4" class="edge">
<title>GranularMicrostructure&#45;&gt;SecondaryPhase</title>
<path fill="none" stroke="darkgreen" d="M576.7,-199.08C576.7,-189.65 576.7,-178.03 576.7,-167.46"/>
<polygon fill="darkgreen" stroke="darkgreen" points="580.2,-167.67 576.7,-157.67 573.2,-167.67 580.2,-167.67"/>
<text xml:space="preserve" text-anchor="middle" x="565.07" y="-173.32" font-family="Times,serif" font-size="14.00">hasSpatialPart min 0</text>
</g>
<!-- OrdinaryMatter -->
<g id="node6" class="node">
<title>OrdinaryMatter</title>
<g id="a_node6"><a xlink:href="https://w3id.org/emmo#EMMO_6e9cb807_fc68_4bcf_b3ba_5fccc887c644" xlink:title="OrdinaryMatter">
<ellipse fill="#ffffcc" stroke="red" cx="1115.89" cy="-232" rx="90.67" ry="18"/>
<text xml:space="preserve" text-anchor="middle" x="1115.89" y="-227.32" font-family="Times,serif" font-size="14.00">OrdinaryMatter</text>
</a>
</g>
</g>
<!-- Material&#45;&gt;OrdinaryMatter -->
<g id="edge5" class="edge">
<title>Material&#45;&gt;OrdinaryMatter</title>
<path fill="none" stroke="black" d="M918.41,-210.53C948.86,-213.86 988.52,-218.19 1024.22,-222.09"/>
<polygon fill="none" stroke="black" points="1023.83,-225.57 1034.16,-223.18 1024.59,-218.61 1023.83,-225.57"/>
<text xml:space="preserve" text-anchor="middle" x="996.35" y="-224.07" font-family="Times,serif" font-size="14.00">isA</text>
</g>
<!-- Substance -->
<g id="node7" class="node">
<title>Substance</title>
<g id="a_node7"><a xlink:href="https://w3id.org/emmo#EMMO_bc37743c_37c4_4ec7_9d58_d1aae5567352" xlink:title="Substance">
<ellipse fill="#ffffcc" stroke="red" cx="1115.89" cy="-178" rx="63.31" ry="18"/>
<text xml:space="preserve" text-anchor="middle" x="1115.89" y="-173.32" font-family="Times,serif" font-size="14.00">Substance</text>
</a>
</g>
</g>
<!-- Material&#45;&gt;Substance -->
<g id="edge6" class="edge">
<title>Material&#45;&gt;Substance</title>
<path fill="none" stroke="black" d="M918.41,-199.47C954.85,-195.49 1004.49,-190.06 1044.76,-185.66"/>
<polygon fill="none" stroke="black" points="1045.05,-189.15 1054.61,-184.59 1044.29,-182.19 1045.05,-189.15"/>
<text xml:space="preserve" text-anchor="middle" x="996.35" y="-195.45" font-family="Times,serif" font-size="14.00">isA</text>
</g>
<!-- PhaseOfMatter -->
<g id="node8" class="node">
<title>PhaseOfMatter</title>
<g id="a_node8"><a xlink:href="https://w3id.org/emmo#EMMO_668fbd5b_6f1b_405c_9c6b_d6067bd0595a" xlink:title="PhaseOfMatter">
<ellipse fill="#ffffcc" stroke="red" cx="866.81" cy="-78" rx="87.51" ry="18"/>
<text xml:space="preserve" text-anchor="middle" x="866.81" y="-73.33" font-family="Times,serif" font-size="14.00">PhaseOfMatter</text>
</a>
</g>
</g>
<!-- MainMagneticPhase&#45;&gt;PhaseOfMatter -->
<g id="edge11" class="edge">
<title>MainMagneticPhase&#45;&gt;PhaseOfMatter</title>
<path fill="none" stroke="black" d="M669.79,-48.51C695.21,-51.6 722.77,-55.13 748.15,-58.75 760.75,-60.55 774.09,-62.59 787.08,-64.66"/>
<polygon fill="none" stroke="black" points="786.45,-68.1 796.88,-66.24 787.57,-61.19 786.45,-68.1"/>
<text xml:space="preserve" text-anchor="middle" x="737.28" y="-62.7" font-family="Times,serif" font-size="14.00">isA</text>
</g>
<!-- MagneticMaterial -->
<g id="node10" class="node">
<title>MagneticMaterial</title>
<g id="a_node10"><a xlink:href="https://w3id.org/emmo/domain/magnetic-materials#EMMO_c5ca93ce-ad27-5f4a-95ef-aca0990c6937" xlink:title="MagneticMaterial">
<ellipse fill="#ffffcc" stroke="red" cx="866.81" cy="-18" rx="100.66" ry="18"/>
<text xml:space="preserve" text-anchor="middle" x="866.81" y="-13.32" font-family="Times,serif" font-size="14.00">MagneticMaterial</text>
</a>
</g>
</g>
<!-- MainMagneticPhase&#45;&gt;MagneticMaterial -->
<g id="edge12" class="edge">
<title>MainMagneticPhase&#45;&gt;MagneticMaterial</title>
<path fill="none" stroke="black" d="M660.11,-25.49C681.63,-22.73 704.84,-20.2 726.4,-18.75 735.6,-18.13 745.15,-17.68 754.74,-17.36"/>
<polygon fill="none" stroke="black" points="754.59,-20.87 764.49,-17.09 754.39,-13.87 754.59,-20.87"/>
<text xml:space="preserve" text-anchor="middle" x="737.28" y="-22.7" font-family="Times,serif" font-size="14.00">isA</text>
</g>
<!-- GrainBoundaryPhase&#45;&gt;SecondaryPhase -->
<g id="edge10" class="edge">
<title>GrainBoundaryPhase&#45;&gt;SecondaryPhase</title>
<path fill="none" stroke="black" d="M235.35,-138C308.18,-138 401.08,-138 471.41,-138"/>
<polygon fill="none" stroke="black" points="470.99,-141.5 480.99,-138 470.99,-134.5 470.99,-141.5"/>
<text xml:space="preserve" text-anchor="middle" x="340" y="-141.95" font-family="Times,serif" font-size="14.00">isA</text>
</g>
<!-- SecondaryPhase&#45;&gt;Material -->
<g id="edge7" class="edge">
<title>SecondaryPhase&#45;&gt;Material</title>
<path fill="none" stroke="black" d="M637.75,-151.96C688.7,-163.81 761.19,-180.67 810.69,-192.18"/>
<polygon fill="none" stroke="black" points="809.81,-195.57 820.34,-194.43 811.39,-188.75 809.81,-195.57"/>
<text xml:space="preserve" text-anchor="middle" x="737.28" y="-181.45" font-family="Times,serif" font-size="14.00">isA</text>
</g>
<!-- SecondaryPhase&#45;&gt;PhaseOfMatter -->
<g id="edge8" class="edge">
<title>SecondaryPhase&#45;&gt;PhaseOfMatter</title>
<path fill="none" stroke="black" d="M641.64,-124.68C686.36,-115.37 746.19,-102.91 792.79,-93.21"/>
<polygon fill="none" stroke="black" points="793.47,-96.64 802.55,-91.18 792.04,-89.79 793.47,-96.64"/>
<text xml:space="preserve" text-anchor="middle" x="737.28" y="-110.15" font-family="Times,serif" font-size="14.00">isA</text>
</g>
<!-- Referent -->
<g id="node9" class="node">
<title>Referent</title>
<g id="a_node9"><a xlink:href="https://w3id.org/emmo#EMMO_6f5af708_f825_4feb_a0d1_a8d813d3022b" xlink:title="Referent">
<ellipse fill="#ffffcc" stroke="red" cx="866.81" cy="-138" rx="54.89" ry="18"/>
<text xml:space="preserve" text-anchor="middle" x="866.81" y="-133.32" font-family="Times,serif" font-size="14.00">Referent</text>
</a>
</g>
</g>
<!-- SecondaryPhase&#45;&gt;Referent -->
<g id="edge9" class="edge">
<title>SecondaryPhase&#45;&gt;Referent</title>
<path fill="none" stroke="black" d="M670.84,-138C713.01,-138 761.85,-138 800.1,-138"/>
<polygon fill="none" stroke="black" points="800.1,-141.5 810.1,-138 800.1,-134.5 800.1,-141.5"/>
<text xml:space="preserve" text-anchor="middle" x="737.28" y="-141.95" font-family="Times,serif" font-size="14.00">isA</text>
</g>
<!-- key1 -->
<g id="node11" class="node">
<title>key1</title>
<text xml:space="preserve" text-anchor="start" x="151.62" y="-284.95" font-family="Times,serif" font-weight="bold" font-size="14.00">isA</text>
<text xml:space="preserve" text-anchor="start" x="59.37" y="-263.7" font-family="Times,serif" font-weight="bold" font-size="14.00">hasSpatialPart</text>
</g>
<!-- key2 -->
<g id="node12" class="node">
<title>key2</title>
<text xml:space="preserve" text-anchor="start" x="574.45" y="-284.95" font-family="Times,serif" font-size="14.00"> </text>
<text xml:space="preserve" text-anchor="start" x="574.45" y="-263.7" font-family="Times,serif" font-size="14.00"> </text>
</g>
<!-- key1&#45;&gt;key2 -->
<g id="edge13" class="edge">
<title>key1:e&#45;&gt;key2:w</title>
<path fill="none" stroke="black" d="M178.62,-288.62C349.46,-288.62 394.92,-289.58 560.37,-289.62"/>
<polygon fill="none" stroke="black" points="559.93,-293.12 569.94,-289.62 559.94,-286.12 559.93,-293.12"/>
</g>
<!-- key1&#45;&gt;key2 -->
<g id="edge14" class="edge">
<title>key1:e&#45;&gt;key2:w</title>
<path fill="none" stroke="darkgreen" d="M178.62,-267.38C349.46,-267.38 394.92,-268.33 560.37,-268.37"/>
<polygon fill="darkgreen" stroke="darkgreen" points="559.93,-271.87 569.94,-268.37 559.94,-264.87 559.93,-271.87"/>
</g>
</g>
</svg>
