<?xml version="1.0" encoding="UTF-8" standalone="no"?>
<!DOCTYPE svg PUBLIC "-//W3C//DTD SVG 1.1//EN"
 "http://www.w3.org/Graphics/SVG/1.1/DTD/svg11.dtd">
<!-- Generated by graphviz version 14.1.2 (20260126.1125)
 -->
<!-- Pages: 1 -->
<svg width="1237pt" height="534pt"
 viewBox="0.00 0.00 1237.00 534.00" xmlns="http://www.w3.org/2000/svg" xmlns:xlink="http://www.w3.org/1999/xlink">
<g id="graph0" class="graph" transform="scale(1 1) rotate(0) translate(4 529.88)">
<polygon fill="white" stroke="none" points="-4,4 -4,-529.88 1232.67,-529.88 1232.67,4 -4,4"/>
<!-- IntrinsicMagneticProperties -->
<g id="node1" class="node">
<title>IntrinsicMagneticProperties</title>
<g id="a_node1"><a xlink:href="https://w3id.org/emmo/domain/magnetic-materials#EMMO_af8d3fb8-20fe-5f9f-9f85-fd298e26ad7e" xlink:title="IntrinsicMagneticProperties">
<ellipse fill="#ffffcc" stroke="black" stroke-width="2" cx="447.29" cy="-346" rx="152.75" ry="18"/>
<text xml:space="preserve" text-anchor="middle" x="447.29" y="-341.32" font-family="Times,serif" font-size="14.00">IntrinsicMagneticProperties</text>
</a>
</g>
</g>
<!-- Referent -->
<g id="node2" class="node">
<title>Referent</title>
<g id="a_node2"><a xlink:href="https://w3id.org/emmo#EMMO_6f5af708_f825_4feb_a0d1_a8d813d3022b" xlink:title="Referent">
<ellipse fill="#ffffcc" stroke="red" cx="824.74" cy="-408" rx="54.89" ry="18"/>
<text xml:space="preserve" text-anchor="middle" x="824.74" y="-403.32" font-family="Times,serif" font-size="14.00">Referent</text>
</a>
</g>
</g>
<!-- IntrinsicMagneticProperties&#45;&gt;Referent -->
<g id="edge1" class="edge">
<title>IntrinsicMagneticProperties&#45;&gt;Referent</title>
<path fill="none" stroke="black" d="M588.9,-338.61C615.92,-340.1 643.73,-343.7 669.25,-350.75 678.13,-353.2 678.86,-357.21 687.25,-361 714.53,-373.33 746.06,-384.39 771.94,-392.67"/>
<polygon fill="none" stroke="black" points="770.63,-395.93 781.22,-395.6 772.73,-389.25 770.63,-395.93"/>
<text xml:space="preserve" text-anchor="middle" x="658.38" y="-354.7" font-family="Times,serif" font-size="14.00">isA</text>
</g>
<!-- Property -->
<g id="node3" class="node">
<title>Property</title>
<g id="a_node3"><a xlink:href="https://w3id.org/emmo#EMMO_b7bcff25_ffc3_474e_9ab5_01b1664bd4ba" xlink:title="Property">
<ellipse fill="#ffffcc" stroke="red" cx="824.74" cy="-334" rx="55.42" ry="18"/>
<text xml:space="preserve" text-anchor="middle" x="824.74" y="-329.32" font-family="Times,serif" font-size="14.00">Property</text>
</a>
</g>
</g>
<!-- IntrinsicMagneticProperties&#45;&gt;Property -->
<g id="edge2" class="edge">
<title>IntrinsicMagneticProperties&#45;&gt;Property</title>
<path fill="none" stroke="black" d="M508.46,-328.69C552.71,-317.85 614.44,-306.65 669.25,-310.75 701.13,-313.14 736.4,-318.25 765.18,-323.08"/>
<polygon fill="none" stroke="black" points="764.34,-326.49 774.79,-324.72 765.52,-319.59 764.34,-326.49"/>
<text xml:space="preserve" text-anchor="middle" x="658.38" y="-314.7" font-family="Times,serif" font-size="14.00">isA</text>
</g>
<!-- ExchangeStiffnessConstant -->
<g id="node4" class="node">
<title>ExchangeStiffnessConstant</title>
<g id="a_node4"><a xlink:href="https://w3id.org/emmo/domain/magnetic-materials#EMMO_526ed2a5-a017-590e-8eb8-8a900f2b3b78" xlink:title="ExchangeStiffnessConstant">
<ellipse fill="#ffffcc" stroke="red" cx="447.29" cy="-270" rx="149.06" ry="18"/>
<text xml:space="preserve" text-anchor="middle" x="447.29" y="-265.32" font-family="Times,serif" font-size="14.00">ExchangeStiffnessConstant</text>
</a>
</g>
</g>
<!-- IntrinsicMagneticProperties&#45;&gt;ExchangeStiffnessConstant -->
<g id="edge3" class="edge">
<title>IntrinsicMagneticProperties&#45;&gt;ExchangeStiffnessConstant</title>
<path fill="none" stroke="orange" stroke-dasharray="1,5" d="M447.29,-327.24C447.29,-318.92 447.29,-308.92 447.29,-299.62"/>
<polygon fill="orange" stroke="orange" points="450.79,-299.91 447.29,-289.91 443.79,-299.91 450.79,-299.91"/>
<text xml:space="preserve" text-anchor="middle" x="435.67" y="-303.32" font-family="Times,serif" font-size="14.00">hasProperty some</text>
</g>
<!-- MagnetocrystallineAnisotropy -->
<g id="node5" class="node">
<title>MagnetocrystallineAnisotropy</title>
<g id="a_node5"><a xlink:href="https://w3id.org/emmo/domain/magnetic-materials#EMMO_c0a72108-de97-5dff-a830-e4b617adaeef" xlink:title="MagnetocrystallineAnisotropy">
<ellipse fill="#ffffcc" stroke="red" cx="447.29" cy="-418" rx="162.22" ry="18"/>
<text xml:space="preserve" text-anchor="middle" x="447.29" y="-413.32" font-family="Times,serif" font-size="14.00">MagnetocrystallineAnisotropy</text>
</a>
</g>
</g>
<!-- IntrinsicMagneticProperties&#45;&gt;MagnetocrystallineAnisotropy -->
<g id="edge4" class="edge">
<title>IntrinsicMagneticProperties&#45;&gt;MagnetocrystallineAnisotropy</title>
<path fill="none" stroke="orange" stroke-dasharray="1,5" d="M447.29,-364.92C447.29,-372.2 447.29,-380.69 447.29,-388.72"/>
<polygon fill="orange" stroke="orange" points="443.79,-388.44 447.29,-398.44 450.79,-388.44 443.79,-388.44"/>
<text xml:space="preserve" text-anchor="middle" x="435.67" y="-377.32" font-family="Times,serif" font-size="14.00">hasProperty some</text>
</g>
<!-- SpontaneousMagnetization -->
<g id="node6" class="node">
<title>SpontaneousMagnetization</title>
<g id="a_node6"><a xlink:href="https://w3id.org/emmo/domain/magnetic-materials#EMMO_032731f8-874d-5efb-9c9d-6dafaa17ef25" xlink:title="SpontaneousMagnetization">
<ellipse fill="#ffffcc" stroke="red" cx="447.29" cy="-18" rx="148.01" ry="18"/>
<text xml:space="preserve" text-anchor="middle" x="447.29" y="-13.32" font-family="Times,serif" font-size="14.00">SpontaneousMagnetization</text>
</a>
</g>
</g>
<!-- IntrinsicMagneticProperties&#45;&gt;SpontaneousMagnetization -->
<g id="edge5" class="edge">
<title>IntrinsicMagneticProperties&#45;&gt;SpontaneousMagnetization</title>
<path fill="none" stroke="orange" stroke-dasharray="1,5" d="M296.78,-349.8C246.02,-342.81 194.05,-324.88 161.52,-284.62 93.18,-200.06 179.99,-130.68 265.08,-63 282.21,-49.38 302.89,-39.81 324.08,-33.1"/>
<polygon fill="orange" stroke="orange" points="324.79,-36.54 333.39,-30.36 322.81,-29.82 324.79,-36.54"/>
<text xml:space="preserve" text-anchor="middle" x="182.21" y="-271.32" font-family="Times,serif" font-size="14.00">hasProperty some</text>
</g>
<!-- SpontaneousMagneticPolarization -->
<g id="node7" class="node">
<title>SpontaneousMagneticPolarization</title>
<g id="a_node7"><a xlink:href="https://w3id.org/emmo/domain/magnetic-materials#EMMO_db6f7b13-1f1d-584f-9d73-47939b86a7cd" xlink:title="SpontaneousMagneticPolarization">
<ellipse fill="#ffffcc" stroke="red" cx="447.29" cy="-144" rx="182.21" ry="18"/>
<text xml:space="preserve" text-anchor="middle" x="447.29" y="-139.32" font-family="Times,serif" font-size="14.00">SpontaneousMagneticPolarization</text>
</a>
</g>
</g>
<!-- IntrinsicMagneticProperties&#45;&gt;SpontaneousMagneticPolarization -->
<g id="edge6" class="edge">
<title>IntrinsicMagneticProperties&#45;&gt;SpontaneousMagneticPolarization</title>
<path fill="none" stroke="orange" stroke-dasharray="1,5" d="M322.26,-334.95C224.69,-321.07 113.17,-290.36 161.52,-223.38 187.63,-187.19 228.81,-166.41 271.86,-154.75"/>
<polygon fill="orange" stroke="orange" points="272.54,-158.19 281.37,-152.35 270.82,-151.4 272.54,-158.19"/>
<text xml:space="preserve" text-anchor="middle" x="182.21" y="-227.32" font-family="Times,serif" font-size="14.00">hasProperty some</text>
</g>
<!-- SemioticEntity -->
<g id="node12" class="node">
<title>SemioticEntity</title>
<g id="a_node12"><a xlink:href="https://w3id.org/emmo#EMMO_b803f122_4acb_4064_9d71_c1e5fd091fc9" xlink:title="SemioticEntity">
<ellipse fill="#ffffcc" stroke="red" cx="1124.33" cy="-408" rx="85.93" ry="18"/>
<text xml:space="preserve" text-anchor="middle" x="1124.33" y="-403.32" font-family="Times,serif" font-size="14.00">SemioticEntity</text>
</a>
</g>
</g>
<!-- Referent&#45;&gt;SemioticEntity -->
<g id="edge14" class="edge">
<title>Referent&#45;&gt;SemioticEntity</title>
<path fill="none" stroke="black" d="M879.98,-408C920.8,-408 977.83,-408 1026.42,-408"/>
<polygon fill="none" stroke="black" points="1026.41,-411.5 1036.41,-408 1026.41,-404.5 1026.41,-411.5"/>
<text xml:space="preserve" text-anchor="middle" x="991.11" y="-411.95" font-family="Times,serif" font-size="14.00">isA</text>
</g>
<!-- CodedByStructure -->
<g id="node13" class="node">
<title>CodedByStructure</title>
<g id="a_node13"><a xlink:href="https://w3id.org/emmo#EMMO_38f31ba5_348f_4ac2_9a67_a62b5dd7aadd" xlink:title="CodedByStructure">
<ellipse fill="#ffffcc" stroke="red" cx="1124.33" cy="-334" rx="104.35" ry="18"/>
<text xml:space="preserve" text-anchor="middle" x="1124.33" y="-329.32" font-family="Times,serif" font-size="14.00">CodedByStructure</text>
</a>
</g>
</g>
<!-- Property&#45;&gt;CodedByStructure -->
<g id="edge15" class="edge">
<title>Property&#45;&gt;CodedByStructure</title>
<path fill="none" stroke="black" d="M880.32,-334C916.14,-334 964.32,-334 1008.33,-334"/>
<polygon fill="none" stroke="black" points="1008.2,-337.5 1018.2,-334 1008.2,-330.5 1008.2,-337.5"/>
<text xml:space="preserve" text-anchor="middle" x="991.11" y="-337.95" font-family="Times,serif" font-size="14.00">isA</text>
</g>
<!-- LineEnergy -->
<g id="node8" class="node">
<title>LineEnergy</title>
<g id="a_node8"><a xlink:href="https://w3id.org/emmo/domain/magnetic-materials#EMMO_70f92e7c-fa16-51d5-9ca0-5ad635cb1322" xlink:title="LineEnergy">
<ellipse fill="#ffffcc" stroke="red" cx="824.74" cy="-270" rx="69.1" ry="18"/>
<text xml:space="preserve" text-anchor="middle" x="824.74" y="-265.32" font-family="Times,serif" font-size="14.00">LineEnergy</text>
</a>
</g>
</g>
<!-- ExchangeStiffnessConstant&#45;&gt;LineEnergy -->
<g id="edge7" class="edge">
<title>ExchangeStiffnessConstant&#45;&gt;LineEnergy</title>
<path fill="none" stroke="black" d="M596.68,-270C647,-270 701.27,-270 744.13,-270"/>
<polygon fill="none" stroke="black" points="744.1,-273.5 754.1,-270 744.1,-266.5 744.1,-273.5"/>
<text xml:space="preserve" text-anchor="middle" x="658.38" y="-273.95" font-family="Times,serif" font-size="14.00">isA</text>
</g>
<!-- MagnetocrystallineAnisotropy&#45;&gt;Referent -->
<g id="edge8" class="edge">
<title>MagnetocrystallineAnisotropy&#45;&gt;Referent</title>
<path fill="none" stroke="black" d="M605.61,-413.81C659.14,-412.38 716.06,-410.87 758.33,-409.74"/>
<polygon fill="none" stroke="black" points="758.15,-413.25 768.06,-409.48 757.97,-406.25 758.15,-413.25"/>
<text xml:space="preserve" text-anchor="middle" x="658.38" y="-416.35" font-family="Times,serif" font-size="14.00">isA</text>
</g>
<!-- MagnetocrystallineAnisotropy&#45;&gt;Property -->
<g id="edge9" class="edge">
<title>MagnetocrystallineAnisotropy&#45;&gt;Property</title>
<path fill="none" stroke="black" d="M521.58,-401.6C593.59,-385.49 701.95,-361.25 767.46,-346.59"/>
<polygon fill="none" stroke="black" points="767.91,-350.08 776.9,-344.48 766.38,-343.25 767.91,-350.08"/>
<text xml:space="preserve" text-anchor="middle" x="658.38" y="-374.92" font-family="Times,serif" font-size="14.00">isA</text>
</g>
<!-- ElectromagneticQuantity -->
<g id="node9" class="node">
<title>ElectromagneticQuantity</title>
<g id="a_node9"><a xlink:href="https://w3id.org/emmo#EMMO_af794e9d_dc7d_4756_83e1_2cd0e2ec864e" xlink:title="ElectromagneticQuantity">
<ellipse fill="#ffffcc" stroke="red" cx="824.74" cy="-71" rx="137.49" ry="18"/>
<text xml:space="preserve" text-anchor="middle" x="824.74" y="-66.33" font-family="Times,serif" font-size="14.00">ElectromagneticQuantity</text>
</a>
</g>
</g>
<!-- SpontaneousMagnetization&#45;&gt;ElectromagneticQuantity -->
<g id="edge12" class="edge">
<title>SpontaneousMagnetization&#45;&gt;ElectromagneticQuantity</title>
<path fill="none" stroke="black" d="M545.96,-31.79C598.8,-39.25 664.12,-48.47 718.14,-56.09"/>
<polygon fill="none" stroke="black" points="717.59,-59.55 727.98,-57.48 718.57,-52.62 717.59,-59.55"/>
<text xml:space="preserve" text-anchor="middle" x="658.38" y="-51.62" font-family="Times,serif" font-size="14.00">isA</text>
</g>
<!-- MagneticFieldStrengthUnit -->
<g id="node11" class="node">
<title>MagneticFieldStrengthUnit</title>
<g id="a_node11"><a xlink:href="https://w3id.org/emmo#EMMO_e6b83139_ba92_4fbd_a8b2_c8dde55844a1" xlink:title="MagneticFieldStrengthUnit">
<ellipse fill="#ffffcc" stroke="red" cx="447.29" cy="-90" rx="150.12" ry="18"/>
<text xml:space="preserve" text-anchor="middle" x="447.29" y="-85.33" font-family="Times,serif" font-size="14.00">MagneticFieldStrengthUnit</text>
</a>
</g>
</g>
<!-- SpontaneousMagnetization&#45;&gt;MagneticFieldStrengthUnit -->
<g id="edge13" class="edge">
<title>SpontaneousMagnetization&#45;&gt;MagneticFieldStrengthUnit</title>
<path fill="none" stroke="orange" stroke-dasharray="5,2" d="M447.29,-36.17C447.29,-43.45 447.29,-52.02 447.29,-60.17"/>
<polygon fill="orange" stroke="orange" points="443.79,-60.07 447.29,-70.07 450.79,-60.07 443.79,-60.07"/>
<text xml:space="preserve" text-anchor="middle" x="435.67" y="-49.33" font-family="Times,serif" font-size="14.00">hasMeasurementUnit some</text>
</g>
<!-- SpontaneousMagneticPolarization&#45;&gt;ElectromagneticQuantity -->
<g id="edge10" class="edge">
<title>SpontaneousMagneticPolarization&#45;&gt;ElectromagneticQuantity</title>
<path fill="none" stroke="black" d="M557.31,-129.29C581.16,-125.64 606.23,-121.48 629.5,-117 669.44,-109.31 713.58,-99 749.68,-90.1"/>
<polygon fill="none" stroke="black" points="750.28,-93.55 759.14,-87.74 748.59,-86.76 750.28,-93.55"/>
<text xml:space="preserve" text-anchor="middle" x="658.38" y="-116.71" font-family="Times,serif" font-size="14.00">isA</text>
</g>
<!-- MagneticFluxDensityUnit -->
<g id="node10" class="node">
<title>MagneticFluxDensityUnit</title>
<g id="a_node10"><a xlink:href="https://w3id.org/emmo#EMMO_ec903946_ddc9_464a_903c_7373e0d1eeb5" xlink:title="MagneticFluxDensityUnit">
<ellipse fill="#ffffcc" stroke="red" cx="447.29" cy="-216" rx="140.65" ry="18"/>
<text xml:space="preserve" text-anchor="middle" x="447.29" y="-211.32" font-family="Times,serif" font-size="14.00">MagneticFluxDensityUnit</text>
</a>
</g>
</g>
<!-- SpontaneousMagneticPolarization&#45;&gt;MagneticFluxDensityUnit -->
<g id="edge11" class="edge">
<title>SpontaneousMagneticPolarization&#45;&gt;MagneticFluxDensityUnit</title>
<path fill="none" stroke="orange" stroke-dasharray="5,2" d="M447.29,-162.17C447.29,-169.45 447.29,-178.02 447.29,-186.17"/>
<polygon fill="orange" stroke="orange" points="443.79,-186.07 447.29,-196.07 450.79,-186.07 443.79,-186.07"/>
<text xml:space="preserve" text-anchor="middle" x="435.67" y="-175.32" font-family="Times,serif" font-size="14.00">hasMeasurementUnit some</text>
</g>
<!-- key1 -->
<g id="node14" class="node">
<title>key1</title>
<text xml:space="preserve" text-anchor="start" x="500.92" y="-507.57" font-family="Times,serif" font-weight="bold" font-size="14.00">isA</text>
<text xml:space="preserve" text-anchor="start" x="369.67" y="-485.32" font-family="Times,serif" font-size="14.00">hasMeasurementUnit</text>
<text xml:space="preserve" text-anchor="start" x="428.92" y="-465.07" font-family="Times,serif" font-weight="bold" font-size="14.00">hasProperty</text>
</g>
<!-- key2 -->
<g id="node15" class="node">
<title>key2</title>
<text xml:space="preserve" text-anchor="start" x="822.49" y="-506.57" font-family="Times,serif" font-size="14.00"> </text>
<text xml:space="preserve" text-anchor="start" x="822.49" y="-485.32" font-family="Times,serif" font-size="14.00"> </text>
<text xml:space="preserve" text-anchor="start" x="822.49" y="-464.07" font-family="Times,serif" font-size="14.00"> </text>
</g>
<!-- key1&#45;&gt;key2 -->
<g id="edge16" class="edge">
<title>key1:e&#45;&gt;key2:w</title>
<path fill="none" stroke="black" d="M527.92,-511.25C653.58,-511.25 687.85,-511.25 807.99,-511.25"/>
<polygon fill="none" stroke="black" points="807.98,-514.75 817.98,-511.25 807.98,-507.75 807.98,-514.75"/>
</g>
<!-- key1&#45;&gt;key2 -->
<g id="edge17" class="edge">
<title>key1:e&#45;&gt;key2:w</title>
<path fill="none" stroke="orange" stroke-dasharray="5,2" d="M527.92,-490C653.58,-490 687.85,-490 807.99,-490"/>
<polygon fill="orange" stroke="orange" points="807.98,-493.5 817.98,-490 807.98,-486.5 807.98,-493.5"/>
</g>
<!-- key1&#45;&gt;key2 -->
<g id="edge18" class="edge">
<title>key1:e&#45;&gt;key2:w</title>
<path fill="none" stroke="orange" stroke-dasharray="1,5" d="M527.92,-468.75C653.58,-468.75 687.85,-468.75 807.99,-468.75"/>
<polygon fill="orange" stroke="orange" points="807.98,-472.25 817.98,-468.75 807.98,-465.25 807.98,-472.25"/>
</g>
</g>
</svg>
