<?xml version="1.0" encoding="UTF-8" standalone="no"?>
<!DOCTYPE svg PUBLIC "-//W3C//DTD SVG 1.1//EN"
 "http://www.w3.org/Graphics/SVG/1.1/DTD/svg11.dtd">
<!-- Generated by graphviz version 14.1.2 (20260126.1125)
 -->
<!-- Pages: 1 -->
<svg width="1026pt" height="456pt"
 viewBox="0.00 0.00 1026.00 456.00" xmlns="http://www.w3.org/2000/svg" xmlns:xlink="http://www.w3.org/1999/xlink">
<g id="graph0" class="graph" transform="scale(1 1) rotate(0) translate(4 452.25)">
<polygon fill="white" stroke="none" points="-4,4 -4,-452.25 1021.57,-452.25 1021.57,4 -4,4"/>
<!-- MainMagneticPhase -->
<g id="node1" class="node">
<title>MainMagneticPhase</title>
<g id="a_node1"><a xlink:href="https://w3id.org/emmo/domain/magnetic-materials#EMMO_8894d78f-5d53-540e-a278-17c93e1be2ab" xlink:title="MainMagneticPhase">
<ellipse fill="#ffffcc" stroke="black" cx="157.48" cy="-234" rx="113.29" ry="18"/>
<text xml:space="preserve" text-anchor="middle" x="157.48" y="-229.32" font-family="Times,serif" font-size="14.00">MainMagneticPhase</text>
</a>
</g>
</g>
<!-- MagneticMaterial -->
<g id="node4" class="node">
<title>MagneticMaterial</title>
<g id="a_node4"><a xlink:href="https://w3id.org/emmo/domain/magnetic-materials#EMMO_c5ca93ce-ad27-5f4a-95ef-aca0990c6937" xlink:title="MagneticMaterial">
<ellipse fill="#ffffcc" stroke="black" stroke-width="2" cx="618.37" cy="-272" rx="100.66" ry="18"/>
<text xml:space="preserve" text-anchor="middle" x="618.37" y="-267.32" font-family="Times,serif" font-size="14.00">MagneticMaterial</text>
</a>
</g>
</g>
<!-- MainMagneticPhase&#45;&gt;MagneticMaterial -->
<g id="edge11" class="edge">
<title>MainMagneticPhase&#45;&gt;MagneticMaterial</title>
<path fill="none" stroke="black" d="M255.82,-243.17C280.95,-245.47 307.96,-247.89 332.96,-250 392.4,-255.02 458.85,-260.19 512.57,-264.25"/>
<polygon fill="none" stroke="black" points="512.09,-267.73 522.33,-264.99 512.62,-260.75 512.09,-267.73"/>
<text xml:space="preserve" text-anchor="middle" x="411.34" y="-266.31" font-family="Times,serif" font-size="14.00">isA</text>
</g>
<!-- PhaseOfMatter -->
<g id="node12" class="node">
<title>PhaseOfMatter</title>
<g id="a_node12"><a xlink:href="https://w3id.org/emmo#EMMO_668fbd5b_6f1b_405c_9c6b_d6067bd0595a" xlink:title="PhaseOfMatter">
<ellipse fill="#ffffcc" stroke="red" cx="618.37" cy="-112" rx="87.51" ry="18"/>
<text xml:space="preserve" text-anchor="middle" x="618.37" y="-107.33" font-family="Times,serif" font-size="14.00">PhaseOfMatter</text>
</a>
</g>
</g>
<!-- MainMagneticPhase&#45;&gt;PhaseOfMatter -->
<g id="edge10" class="edge">
<title>MainMagneticPhase&#45;&gt;PhaseOfMatter</title>
<path fill="none" stroke="black" d="M270.07,-231.85C286.81,-226.99 302.57,-219.17 314.96,-207 345.39,-177.12 300.14,-139.97 332.96,-112.75 362.37,-88.37 460.12,-93.18 532.86,-100.81"/>
<polygon fill="none" stroke="black" points="532.48,-104.29 542.8,-101.89 533.24,-97.33 532.48,-104.29"/>
<text xml:space="preserve" text-anchor="middle" x="411.34" y="-116.7" font-family="Times,serif" font-size="14.00">isA</text>
</g>
<!-- VolumeFraction -->
<g id="node13" class="node">
<title>VolumeFraction</title>
<g id="a_node13"><a xlink:href="https://w3id.org/emmo#EMMO_a8eb87b5_4d10_4137_a75c_e04ee59ca095" xlink:title="VolumeFraction">
<ellipse fill="#ffffcc" stroke="red" cx="157.48" cy="-306" rx="90.14" ry="18"/>
<text xml:space="preserve" text-anchor="middle" x="157.48" y="-301.32" font-family="Times,serif" font-size="14.00">VolumeFraction</text>
</a>
</g>
</g>
<!-- MainMagneticPhase&#45;&gt;VolumeFraction -->
<g id="edge12" class="edge">
<title>MainMagneticPhase&#45;&gt;VolumeFraction</title>
<path fill="none" stroke="orange" stroke-dasharray="1,5" d="M157.48,-252.17C157.48,-259.45 157.48,-268.02 157.48,-276.17"/>
<polygon fill="orange" stroke="orange" points="153.98,-276.07 157.48,-286.07 160.98,-276.07 153.98,-276.07"/>
<text xml:space="preserve" text-anchor="middle" x="145.86" y="-265.32" font-family="Times,serif" font-size="14.00">hasProperty some</text>
</g>
<!-- CrystallineMagneticMaterial -->
<g id="node2" class="node">
<title>CrystallineMagneticMaterial</title>
<g id="a_node2"><a xlink:href="https://w3id.org/emmo/domain/magnetic-materials#EMMO_aaa107b8-4dd9-5fc8-b135-a604a0cb38b1" xlink:title="CrystallineMagneticMaterial">
<ellipse fill="#ffffcc" stroke="black" stroke-width="2" cx="157.48" cy="-360" rx="155.38" ry="18"/>
<text xml:space="preserve" text-anchor="middle" x="157.48" y="-355.32" font-family="Times,serif" font-size="14.00">CrystallineMagneticMaterial</text>
</a>
</g>
</g>
<!-- CrystallineMagneticMaterial&#45;&gt;MagneticMaterial -->
<g id="edge4" class="edge">
<title>CrystallineMagneticMaterial&#45;&gt;MagneticMaterial</title>
<path fill="none" stroke="black" d="M249.58,-344.73C271.04,-341.01 293.83,-336.95 314.96,-333 391.41,-318.7 478.43,-300.99 539.44,-288.35"/>
<polygon fill="none" stroke="black" points="539.95,-291.82 549.03,-286.36 538.53,-284.96 539.95,-291.82"/>
<text xml:space="preserve" text-anchor="middle" x="411.34" y="-332.31" font-family="Times,serif" font-size="14.00">isA</text>
</g>
<!-- GranularStructure -->
<g id="node6" class="node">
<title>GranularStructure</title>
<g id="a_node6"><a xlink:href="https://w3id.org/emmo/domain/magnetic-materials#EMMO_75b995e0-2bac-5812-a7f6-f8c1731d1d5c" xlink:title="GranularStructure">
<ellipse fill="#ffffcc" stroke="red" cx="618.37" cy="-360" rx="104.35" ry="18"/>
<text xml:space="preserve" text-anchor="middle" x="618.37" y="-355.32" font-family="Times,serif" font-size="14.00">GranularStructure</text>
</a>
</g>
</g>
<!-- CrystallineMagneticMaterial&#45;&gt;GranularStructure -->
<g id="edge3" class="edge">
<title>CrystallineMagneticMaterial&#45;&gt;GranularStructure</title>
<path fill="none" stroke="black" d="M313.84,-360C375.64,-360 445.46,-360 502.55,-360"/>
<polygon fill="none" stroke="black" points="502.28,-363.5 512.28,-360 502.28,-356.5 502.28,-363.5"/>
<text xml:space="preserve" text-anchor="middle" x="411.34" y="-363.95" font-family="Times,serif" font-size="14.00">isA</text>
</g>
<!-- AmorphousMagneticMaterial -->
<g id="node3" class="node">
<title>AmorphousMagneticMaterial</title>
<g id="a_node3"><a xlink:href="https://w3id.org/emmo/domain/magnetic-materials#EMMO_694b3915-3326-5fb2-87a1-20ccf1dc79dc" xlink:title="AmorphousMagneticMaterial">
<ellipse fill="#ffffcc" stroke="black" cx="157.48" cy="-18" rx="157.48" ry="18"/>
<text xml:space="preserve" text-anchor="middle" x="157.48" y="-13.32" font-family="Times,serif" font-size="14.00">AmorphousMagneticMaterial</text>
</a>
</g>
</g>
<!-- AmorphousMagneticMaterial&#45;&gt;MagneticMaterial -->
<g id="edge2" class="edge">
<title>AmorphousMagneticMaterial&#45;&gt;MagneticMaterial</title>
<path fill="none" stroke="black" d="M270.81,-30.89C360.32,-42.14 473.32,-58.95 489.71,-73.75 512.05,-93.91 493.84,-112.31 507.71,-139 529.17,-180.27 564.99,-220.46 589.83,-245.66"/>
<polygon fill="none" stroke="black" points="587.18,-247.95 596.72,-252.54 592.12,-243 587.18,-247.95"/>
<text xml:space="preserve" text-anchor="middle" x="411.34" y="-77.7" font-family="Times,serif" font-size="14.00">isA</text>
</g>
<!-- AmorphousMaterial -->
<g id="node5" class="node">
<title>AmorphousMaterial</title>
<g id="a_node5"><a xlink:href="https://w3id.org/emmo#EMMO_0afc19b0_2d43_4b3d_8da0_9ffb63bc1492" xlink:title="AmorphousMaterial">
<ellipse fill="#ffffcc" stroke="red" cx="618.37" cy="-18" rx="110.66" ry="18"/>
<text xml:space="preserve" text-anchor="middle" x="618.37" y="-13.32" font-family="Times,serif" font-size="14.00">AmorphousMaterial</text>
</a>
</g>
</g>
<!-- AmorphousMagneticMaterial&#45;&gt;AmorphousMaterial -->
<g id="edge1" class="edge">
<title>AmorphousMagneticMaterial&#45;&gt;AmorphousMaterial</title>
<path fill="none" stroke="black" d="M315.44,-18C374.57,-18 440.85,-18 496.22,-18"/>
<polygon fill="none" stroke="black" points="495.99,-21.5 505.99,-18 495.99,-14.5 495.99,-21.5"/>
<text xml:space="preserve" text-anchor="middle" x="411.34" y="-21.95" font-family="Times,serif" font-size="14.00">isA</text>
</g>
<!-- Referent -->
<g id="node7" class="node">
<title>Referent</title>
<g id="a_node7"><a xlink:href="https://w3id.org/emmo#EMMO_6f5af708_f825_4feb_a0d1_a8d813d3022b" xlink:title="Referent">
<ellipse fill="#ffffcc" stroke="red" cx="902.17" cy="-299" rx="54.89" ry="18"/>
<text xml:space="preserve" text-anchor="middle" x="902.17" y="-294.32" font-family="Times,serif" font-size="14.00">Referent</text>
</a>
</g>
</g>
<!-- MagneticMaterial&#45;&gt;Referent -->
<g id="edge5" class="edge">
<title>MagneticMaterial&#45;&gt;Referent</title>
<path fill="none" stroke="black" d="M708.92,-280.58C750.84,-284.6 799.78,-289.29 837.8,-292.93"/>
<polygon fill="none" stroke="black" points="837.43,-296.41 847.72,-293.88 838.09,-289.44 837.43,-296.41"/>
<text xml:space="preserve" text-anchor="middle" x="757.91" y="-290.26" font-family="Times,serif" font-size="14.00">isA</text>
</g>
<!-- MaterialByStructure -->
<g id="node8" class="node">
<title>MaterialByStructure</title>
<g id="a_node8"><a xlink:href="https://w3id.org/emmo#EMMO_f00fb163_48c9_4c59_b6c2_4205c082aa54" xlink:title="MaterialByStructure">
<ellipse fill="#ffffcc" stroke="red" cx="902.17" cy="-245" rx="115.39" ry="18"/>
<text xml:space="preserve" text-anchor="middle" x="902.17" y="-240.32" font-family="Times,serif" font-size="14.00">MaterialByStructure</text>
</a>
</g>
</g>
<!-- MagneticMaterial&#45;&gt;MaterialByStructure -->
<g id="edge6" class="edge">
<title>MagneticMaterial&#45;&gt;MaterialByStructure</title>
<path fill="none" stroke="black" d="M708.92,-263.42C735.13,-260.91 764.08,-258.14 791.39,-255.52"/>
<polygon fill="none" stroke="black" points="791.44,-259.03 801.06,-254.59 790.78,-252.06 791.44,-259.03"/>
<text xml:space="preserve" text-anchor="middle" x="757.91" y="-263.26" font-family="Times,serif" font-size="14.00">isA</text>
</g>
<!-- Density -->
<g id="node9" class="node">
<title>Density</title>
<g id="a_node9"><a xlink:href="https://w3id.org/emmo#EMMO_06448f64_8db6_4304_8b2c_e785dba82044" xlink:title="Density">
<ellipse fill="#ffffcc" stroke="red" cx="157.48" cy="-180" rx="49.63" ry="18"/>
<text xml:space="preserve" text-anchor="middle" x="157.48" y="-175.32" font-family="Times,serif" font-size="14.00">Density</text>
</a>
</g>
</g>
<!-- MagneticMaterial&#45;&gt;Density -->
<g id="edge7" class="edge">
<title>MagneticMaterial&#45;&gt;Density</title>
<path fill="none" stroke="orange" stroke-dasharray="1,5" d="M574.29,-254.91C549.84,-245.85 518.47,-235.27 489.71,-228.75 421.29,-213.24 402.39,-220.11 332.96,-210 327,-209.13 262.9,-198.07 214.1,-189.63"/>
<polygon fill="orange" stroke="orange" points="214.96,-186.23 204.51,-187.97 213.76,-193.13 214.96,-186.23"/>
<text xml:space="preserve" text-anchor="middle" x="411.34" y="-232.7" font-family="Times,serif" font-size="14.00">hasProperty exactly 1</text>
</g>
<!-- ChemicalComposition -->
<g id="node10" class="node">
<title>ChemicalComposition</title>
<g id="a_node10"><a xlink:href="https://w3id.org/emmo#EMMO_7efd64d1_05a1_49cd_a7f0_783ca050d4f3" xlink:title="ChemicalComposition">
<ellipse fill="#ffc880" stroke="red" cx="157.48" cy="-126" rx="120.13" ry="18"/>
<text xml:space="preserve" text-anchor="middle" x="157.48" y="-121.33" font-family="Times,serif" font-size="14.00">ChemicalComposition</text>
</a>
</g>
</g>
<!-- MagneticMaterial&#45;&gt;ChemicalComposition -->
<g id="edge8" class="edge">
<title>MagneticMaterial&#45;&gt;ChemicalComposition</title>
<path fill="none" stroke="orange" stroke-dasharray="1,5" d="M596,-253.57C571.92,-233.93 530.75,-203.66 489.71,-188.75 423.77,-164.79 396.51,-199.75 332.96,-170 323,-165.33 324.81,-157.92 314.96,-153 302,-146.51 287.75,-141.55 273.3,-137.76"/>
<polygon fill="orange" stroke="orange" points="274.25,-134.39 263.7,-135.44 272.6,-141.19 274.25,-134.39"/>
<text xml:space="preserve" text-anchor="middle" x="411.34" y="-192.7" font-family="Times,serif" font-size="14.00">hasProperty exactly 1</text>
</g>
<!-- IntrinsicMagneticProperties -->
<g id="node11" class="node">
<title>IntrinsicMagneticProperties</title>
<g id="a_node11"><a xlink:href="https://w3id.org/emmo/domain/magnetic-materials#EMMO_af8d3fb8-20fe-5f9f-9f85-fd298e26ad7e" xlink:title="IntrinsicMagneticProperties">
<ellipse fill="#ffffcc" stroke="red" cx="157.48" cy="-72" rx="152.75" ry="18"/>
<text xml:space="preserve" text-anchor="middle" x="157.48" y="-67.33" font-family="Times,serif" font-size="14.00">IntrinsicMagneticProperties</text>
</a>
</g>
</g>
<!-- MagneticMaterial&#45;&gt;IntrinsicMagneticProperties -->
<g id="edge9" class="edge">
<title>MagneticMaterial&#45;&gt;IntrinsicMagneticProperties</title>
<path fill="none" stroke="orange" stroke-dasharray="1,5" d="M604.57,-253.55C583.99,-225.53 540.64,-172.94 489.71,-148.75 426.34,-118.65 391.58,-168.56 332.96,-130 319.65,-121.24 328.04,-108.1 314.96,-99 308.04,-94.18 300.54,-90.13 292.69,-86.73"/>
<polygon fill="orange" stroke="orange" points="294.2,-83.56 283.61,-83.18 291.65,-90.08 294.2,-83.56"/>
<text xml:space="preserve" text-anchor="middle" x="411.34" y="-152.7" font-family="Times,serif" font-size="14.00">hasProperty exactly 1</text>
</g>
<!-- key1 -->
<g id="node14" class="node">
<title>key1</title>
<text xml:space="preserve" text-anchor="start" x="181.48" y="-429.95" font-family="Times,serif" font-weight="bold" font-size="14.00">isA</text>
<text xml:space="preserve" text-anchor="start" x="109.48" y="-408.7" font-family="Times,serif" font-weight="bold" font-size="14.00">hasProperty</text>
</g>
<!-- key2 -->
<g id="node15" class="node">
<title>key2</title>
<text xml:space="preserve" text-anchor="start" x="616.12" y="-426.95" font-family="Times,serif" font-size="14.00"> </text>
<text xml:space="preserve" text-anchor="start" x="616.12" y="-405.7" font-family="Times,serif" font-size="14.00"> </text>
</g>
<!-- key1&#45;&gt;key2 -->
<g id="edge13" class="edge">
<title>key1:e&#45;&gt;key2:w</title>
<path fill="none" stroke="black" d="M208.48,-433.62C384.46,-433.62 431.29,-431.71 601.72,-431.63"/>
<polygon fill="none" stroke="black" points="601.61,-435.13 611.61,-431.63 601.61,-428.13 601.61,-435.13"/>
</g>
<!-- key1&#45;&gt;key2 -->
<g id="edge14" class="edge">
<title>key1:e&#45;&gt;key2:w</title>
<path fill="none" stroke="orange" stroke-dasharray="1,5" d="M208.48,-412.38C384.46,-412.38 431.29,-410.46 601.72,-410.38"/>
<polygon fill="orange" stroke="orange" points="601.61,-413.88 611.61,-410.38 601.61,-406.88 601.61,-413.88"/>
</g>
</g>
</svg>
