<?xml version="1.0" encoding="UTF-8" standalone="no"?>
<!DOCTYPE svg PUBLIC "-//W3C//DTD SVG 1.1//EN"
 "http://www.w3.org/Graphics/SVG/1.1/DTD/svg11.dtd">
<!-- Generated by graphviz version 14.1.2 (20260126.1125)
 -->
<!-- Pages: 1 -->
<svg width="914pt" height="427pt"
 viewBox="0.00 0.00 914.00 427.00" xmlns="http://www.w3.org/2000/svg" xmlns:xlink="http://www.w3.org/1999/xlink">
<g id="graph0" class="graph" transform="scale(1 1) rotate(0) translate(4 423.35)">
<polygon fill="white" stroke="none" points="-4,4 -4,-423.35 909.6,-423.35 909.6,4 -4,4"/>
<!-- Magnet -->
<g id="node1" class="node">
<title>Magnet</title>
<g id="a_node1"><a xlink:href="https://w3id.org/emmo/domain/magnetic-materials#EMMO_099b796d-3163-56c7-bc90-3a304256ca5d" xlink:title="Magnet">
<ellipse fill="#ffffcc" stroke="black" stroke-width="2" cx="537.44" cy="-125.48" rx="49.63" ry="18"/>
<text xml:space="preserve" text-anchor="middle" x="537.44" y="-120.8" font-family="Times,serif" font-size="14.00">Magnet</text>
</a>
</g>
</g>
<!-- Referent -->
<g id="node7" class="node">
<title>Referent</title>
<g id="a_node7"><a xlink:href="https://w3id.org/emmo#EMMO_6f5af708_f825_4feb_a0d1_a8d813d3022b" xlink:title="Referent">
<ellipse fill="#ffffcc" stroke="red" cx="794.41" cy="-152.48" rx="54.89" ry="18"/>
<text xml:space="preserve" text-anchor="middle" x="794.41" y="-147.8" font-family="Times,serif" font-size="14.00">Referent</text>
</a>
</g>
</g>
<!-- Magnet&#45;&gt;Referent -->
<g id="edge5" class="edge">
<title>Magnet&#45;&gt;Referent</title>
<path fill="none" stroke="black" d="M586.1,-130.53C626.81,-134.84 685.68,-141.07 730.3,-145.8"/>
<polygon fill="none" stroke="black" points="729.78,-149.26 740.1,-146.83 730.52,-142.3 729.78,-149.26"/>
<text xml:space="preserve" text-anchor="middle" x="654.35" y="-142.12" font-family="Times,serif" font-size="14.00">isA</text>
</g>
<!-- MaterialByFunction -->
<g id="node8" class="node">
<title>MaterialByFunction</title>
<g id="a_node8"><a xlink:href="https://w3id.org/emmo#EMMO_8820f251_ad36_43f4_a693_c0e86a89cc1f" xlink:title="MaterialByFunction">
<ellipse fill="#ffffcc" stroke="red" cx="794.41" cy="-98.48" rx="111.18" ry="18"/>
<text xml:space="preserve" text-anchor="middle" x="794.41" y="-93.8" font-family="Times,serif" font-size="14.00">MaterialByFunction</text>
</a>
</g>
</g>
<!-- Magnet&#45;&gt;MaterialByFunction -->
<g id="edge6" class="edge">
<title>Magnet&#45;&gt;MaterialByFunction</title>
<path fill="none" stroke="black" d="M586.1,-120.43C615.1,-117.36 653.32,-113.31 689.03,-109.53"/>
<polygon fill="none" stroke="black" points="688.94,-113.06 698.52,-108.53 688.21,-106.1 688.94,-113.06"/>
<text xml:space="preserve" text-anchor="middle" x="654.35" y="-117.55" font-family="Times,serif" font-size="14.00">isA</text>
</g>
<!-- GranularMicrostructure -->
<g id="node9" class="node">
<title>GranularMicrostructure</title>
<g id="a_node9"><a xlink:href="https://w3id.org/emmo/domain/magnetic-materials#EMMO_cf5261fe-bdab-5c7b-b6a8-f9a313687bc2" xlink:title="GranularMicrostructure">
<ellipse fill="#ffffcc" stroke="red" cx="131.7" cy="-311.48" rx="131.7" ry="18"/>
<text xml:space="preserve" text-anchor="middle" x="131.7" y="-306.8" font-family="Times,serif" font-size="14.00">GranularMicrostructure</text>
</a>
</g>
</g>
<!-- Magnet&#45;&gt;GranularMicrostructure -->
<g id="edge7" class="edge">
<title>Magnet&#45;&gt;GranularMicrostructure</title>
<path fill="none" stroke="darkgreen" d="M503.57,-139.31C485.59,-148.27 464.05,-161.44 449.41,-178.48 435.9,-194.19 446.33,-207.11 431.41,-221.48 384.76,-266.4 316.54,-288.99 257.06,-300.31"/>
<polygon fill="darkgreen" stroke="darkgreen" points="256.77,-296.81 247.55,-302.03 258.01,-303.7 256.77,-296.81"/>
<text xml:space="preserve" text-anchor="middle" x="356.41" y="-298.66" font-family="Times,serif" font-size="14.00">hasSpatialPart min 0</text>
</g>
<!-- ThinFilmMagnet -->
<g id="node2" class="node">
<title>ThinFilmMagnet</title>
<g id="a_node2"><a xlink:href="https://w3id.org/emmo/domain/magnetic-materials#EMMO_6f92a0d5-2eae-5ceb-83dc-2fef7c41a1dd" xlink:title="ThinFilmMagnet">
<ellipse fill="#ffffcc" stroke="black" cx="131.7" cy="-89.48" rx="94.35" ry="18"/>
<text xml:space="preserve" text-anchor="middle" x="131.7" y="-84.8" font-family="Times,serif" font-size="14.00">ThinFilmMagnet</text>
</a>
</g>
</g>
<!-- ThinFilmMagnet&#45;&gt;Magnet -->
<g id="edge9" class="edge">
<title>ThinFilmMagnet&#45;&gt;Magnet</title>
<path fill="none" stroke="black" d="M216.84,-97.52C237.92,-99.5 260.49,-101.59 281.41,-103.48 348.27,-109.51 425.04,-116.09 476.73,-120.46"/>
<polygon fill="none" stroke="black" points="476.25,-123.93 486.51,-121.29 476.84,-116.96 476.25,-123.93"/>
<text xml:space="preserve" text-anchor="middle" x="356.41" y="-120.14" font-family="Times,serif" font-size="14.00">isA</text>
</g>
<!-- MaterialBySize -->
<g id="node10" class="node">
<title>MaterialBySize</title>
<g id="a_node10"><a xlink:href="https://w3id.org/emmo#EMMO_e4e80813_f379_4091_b017_ee059811f806" xlink:title="MaterialBySize">
<ellipse fill="#ffffcc" stroke="red" cx="537.44" cy="-38.48" rx="88.04" ry="18"/>
<text xml:space="preserve" text-anchor="middle" x="537.44" y="-33.8" font-family="Times,serif" font-size="14.00">MaterialBySize</text>
</a>
</g>
</g>
<!-- ThinFilmMagnet&#45;&gt;MaterialBySize -->
<g id="edge8" class="edge">
<title>ThinFilmMagnet&#45;&gt;MaterialBySize</title>
<path fill="none" stroke="black" d="M223.65,-85.04C283.05,-81.28 362.16,-74.67 431.41,-63.48 444.49,-61.36 458.36,-58.51 471.58,-55.49"/>
<polygon fill="none" stroke="black" points="472.09,-58.96 481.03,-53.27 470.49,-52.15 472.09,-58.96"/>
<text xml:space="preserve" text-anchor="middle" x="356.41" y="-84.52" font-family="Times,serif" font-size="14.00">isA</text>
</g>
<!-- BulkMagnet -->
<g id="node3" class="node">
<title>BulkMagnet</title>
<g id="a_node3"><a xlink:href="https://w3id.org/emmo/domain/magnetic-materials#EMMO_d28323da-810f-5cbe-a770-eab7e7fdb493" xlink:title="BulkMagnet">
<ellipse fill="#ffffcc" stroke="black" stroke-width="2" cx="131.7" cy="-22.48" rx="72.25" ry="18"/>
<text xml:space="preserve" text-anchor="middle" x="131.7" y="-17.8" font-family="Times,serif" font-size="14.00">BulkMagnet</text>
</a>
</g>
</g>
<!-- BulkMagnet&#45;&gt;Magnet -->
<g id="edge11" class="edge">
<title>BulkMagnet&#45;&gt;Magnet</title>
<path fill="none" stroke="black" d="M204.58,-24.16C286.58,-26.55 411.91,-31.85 431.41,-42.23 442.94,-48.37 439.91,-56.5 449.41,-65.48 464.67,-79.93 483.7,-93.45 500.06,-103.99"/>
<polygon fill="none" stroke="black" points="497.74,-106.67 508.06,-109.03 501.47,-100.74 497.74,-106.67"/>
<text xml:space="preserve" text-anchor="middle" x="356.41" y="-46.18" font-family="Times,serif" font-size="14.00">isA</text>
</g>
<!-- BulkMagnet&#45;&gt;MaterialBySize -->
<g id="edge10" class="edge">
<title>BulkMagnet&#45;&gt;MaterialBySize</title>
<path fill="none" stroke="black" d="M192.83,-12.09C253.39,-3.3 349.36,6.08 431.41,-6.23 448.74,-8.83 467.16,-13.72 483.65,-18.92"/>
<polygon fill="none" stroke="black" points="482.15,-22.11 492.74,-21.89 484.33,-15.45 482.15,-22.11"/>
<text xml:space="preserve" text-anchor="middle" x="356.41" y="-10.18" font-family="Times,serif" font-size="14.00">isA</text>
</g>
<!-- MultilayerMagnet -->
<g id="node4" class="node">
<title>MultilayerMagnet</title>
<g id="a_node4"><a xlink:href="https://w3id.org/emmo/domain/magnetic-materials#EMMO_4ee603fc-7a1e-51f0-bf75-8e66f9a5539b" xlink:title="MultilayerMagnet">
<ellipse fill="#ffffcc" stroke="black" cx="131.7" cy="-185.48" rx="101.71" ry="18"/>
<text xml:space="preserve" text-anchor="middle" x="131.7" y="-180.8" font-family="Times,serif" font-size="14.00">MultilayerMagnet</text>
</a>
</g>
</g>
<!-- MultilayerMagnet&#45;&gt;Magnet -->
<g id="edge2" class="edge">
<title>MultilayerMagnet&#45;&gt;Magnet</title>
<path fill="none" stroke="black" d="M211.03,-173.84C289.66,-162.15 408.93,-144.43 479.14,-134"/>
<polygon fill="none" stroke="black" points="479.52,-137.48 488.89,-132.55 478.49,-130.55 479.52,-137.48"/>
<text xml:space="preserve" text-anchor="middle" x="356.41" y="-166.57" font-family="Times,serif" font-size="14.00">isA</text>
</g>
<!-- MultilayerMagnet&#45;&gt;ThinFilmMagnet -->
<g id="edge3" class="edge">
<title>MultilayerMagnet&#45;&gt;ThinFilmMagnet</title>
<path fill="none" stroke="darkgreen" stroke-dasharray="5,2" d="M131.7,-167.18C131.7,-153.52 131.7,-134.59 131.7,-118.83"/>
<polygon fill="darkgreen" stroke="darkgreen" points="135.2,-119.05 131.7,-109.05 128.2,-119.05 135.2,-119.05"/>
<text xml:space="preserve" text-anchor="middle" x="120.08" y="-132.8" font-family="Times,serif" font-size="14.00">hasSpatialTile some</text>
</g>
<!-- SpatialTiling -->
<g id="node5" class="node">
<title>SpatialTiling</title>
<g id="a_node5"><a xlink:href="https://w3id.org/emmo#EMMO_8944581c_64da_46a9_be29_7074f7cc8098" xlink:title="SpatialTiling">
<ellipse fill="#ffffcc" stroke="red" cx="537.44" cy="-205.48" rx="74.88" ry="18"/>
<text xml:space="preserve" text-anchor="middle" x="537.44" y="-200.8" font-family="Times,serif" font-size="14.00">SpatialTiling</text>
</a>
</g>
</g>
<!-- MultilayerMagnet&#45;&gt;SpatialTiling -->
<g id="edge1" class="edge">
<title>MultilayerMagnet&#45;&gt;SpatialTiling</title>
<path fill="none" stroke="black" d="M230.18,-190.31C297.98,-193.67 387.46,-198.1 452.18,-201.3"/>
<polygon fill="none" stroke="black" points="451.88,-204.79 462.04,-201.79 452.23,-197.8 451.88,-204.79"/>
<text xml:space="preserve" text-anchor="middle" x="356.41" y="-204.07" font-family="Times,serif" font-size="14.00">isA</text>
</g>
<!-- SpacerLayer -->
<g id="node6" class="node">
<title>SpacerLayer</title>
<g id="a_node6"><a xlink:href="https://w3id.org/emmo/domain/magnetic-materials#EMMO_1b980f86-4116-5af8-bc45-14b44d88eeb5" xlink:title="SpacerLayer">
<ellipse fill="#ffffcc" stroke="red" cx="131.7" cy="-257.48" rx="74.36" ry="18"/>
<text xml:space="preserve" text-anchor="middle" x="131.7" y="-252.8" font-family="Times,serif" font-size="14.00">SpacerLayer</text>
</a>
</g>
</g>
<!-- MultilayerMagnet&#45;&gt;SpacerLayer -->
<g id="edge4" class="edge">
<title>MultilayerMagnet&#45;&gt;SpacerLayer</title>
<path fill="none" stroke="darkgreen" stroke-dasharray="5,2" d="M131.7,-203.65C131.7,-210.93 131.7,-219.5 131.7,-227.65"/>
<polygon fill="darkgreen" stroke="darkgreen" points="128.2,-227.55 131.7,-237.55 135.2,-227.55 128.2,-227.55"/>
<text xml:space="preserve" text-anchor="middle" x="120.08" y="-216.8" font-family="Times,serif" font-size="14.00">hasSpatialTile min 0</text>
</g>
<!-- key1 -->
<g id="node11" class="node">
<title>key1</title>
<text xml:space="preserve" text-anchor="start" x="165.83" y="-401.05" font-family="Times,serif" font-weight="bold" font-size="14.00">isA</text>
<text xml:space="preserve" text-anchor="start" x="73.58" y="-379.8" font-family="Times,serif" font-weight="bold" font-size="14.00">hasSpatialPart</text>
<text xml:space="preserve" text-anchor="start" x="88.58" y="-357.55" font-family="Times,serif" font-size="14.00">hasSpatialTile</text>
</g>
<!-- key2 -->
<g id="node12" class="node">
<title>key2</title>
<text xml:space="preserve" text-anchor="start" x="535.19" y="-400.05" font-family="Times,serif" font-size="14.00"> </text>
<text xml:space="preserve" text-anchor="start" x="535.19" y="-378.8" font-family="Times,serif" font-size="14.00"> </text>
<text xml:space="preserve" text-anchor="start" x="535.19" y="-357.55" font-family="Times,serif" font-size="14.00"> </text>
</g>
<!-- key1&#45;&gt;key2 -->
<g id="edge12" class="edge">
<title>key1:e&#45;&gt;key2:w</title>
<path fill="none" stroke="black" d="M192.83,-404.73C339.83,-404.73 379.38,-404.73 520.92,-404.73"/>
<polygon fill="none" stroke="black" points="520.68,-408.23 530.68,-404.73 520.68,-401.23 520.68,-408.23"/>
</g>
<!-- key1&#45;&gt;key2 -->
<g id="edge13" class="edge">
<title>key1:e&#45;&gt;key2:w</title>
<path fill="none" stroke="darkgreen" d="M192.83,-383.48C339.83,-383.48 379.38,-383.48 520.92,-383.48"/>
<polygon fill="darkgreen" stroke="darkgreen" points="520.68,-386.98 530.68,-383.48 520.68,-379.98 520.68,-386.98"/>
</g>
<!-- key1&#45;&gt;key2 -->
<g id="edge14" class="edge">
<title>key1:e&#45;&gt;key2:w</title>
<path fill="none" stroke="darkgreen" stroke-dasharray="5,2" d="M192.83,-362.23C339.83,-362.23 379.38,-362.23 520.92,-362.23"/>
<polygon fill="darkgreen" stroke="darkgreen" points="520.68,-365.73 530.68,-362.23 520.68,-358.73 520.68,-365.73"/>
</g>
</g>
</svg>
