<?xml version="1.0" encoding="UTF-8" standalone="no"?>
<!DOCTYPE svg PUBLIC "-//W3C//DTD SVG 1.1//EN"
 "http://www.w3.org/Graphics/SVG/1.1/DTD/svg11.dtd">
<!-- Generated by graphviz version 14.1.2 (20260126.1125)
 -->
<!-- Pages: 1 -->
<svg width="1135pt" height="404pt"
 viewBox="0.00 0.00 1135.00 404.00" xmlns="http://www.w3.org/2000/svg" xmlns:xlink="http://www.w3.org/1999/xlink">
<g id="graph0" class="graph" transform="scale(1 1) rotate(0) translate(4 400.27)">
<polygon fill="white" stroke="none" points="-4,4 -4,-400.27 1130.92,-400.27 1130.92,4 -4,4"/>
<!-- BulkMagnet -->
<g id="node1" class="node">
<title>BulkMagnet</title>
<g id="a_node1"><a xlink:href="https://w3id.org/emmo/domain/magnetic-materials#MagMO_d28323da-810f-5cbe-a770-eab7e7fdb493" xlink:title="BulkMagnet">
<ellipse fill="#ffffcc" stroke="black" stroke-width="2" cx="353.03" cy="-157.4" rx="72.25" ry="18"/>
<text xml:space="preserve" text-anchor="middle" x="353.03" y="-152.72" font-family="Times,serif" font-size="14.00">BulkMagnet</text>
</a>
</g>
</g>
<!-- Magnet -->
<g id="node4" class="node">
<title>Magnet</title>
<g id="a_node4"><a xlink:href="https://w3id.org/emmo/domain/magnetic-materials#MagMO_099b796d-3163-56c7-bc90-3a304256ca5d" xlink:title="Magnet">
<ellipse fill="#ffffcc" stroke="black" stroke-width="2" cx="758.77" cy="-167.4" rx="49.63" ry="18"/>
<text xml:space="preserve" text-anchor="middle" x="758.77" y="-162.72" font-family="Times,serif" font-size="14.00">Magnet</text>
</a>
</g>
</g>
<!-- BulkMagnet&#45;&gt;Magnet -->
<g id="edge2" class="edge">
<title>BulkMagnet&#45;&gt;Magnet</title>
<path fill="none" stroke="black" d="M425.75,-159.17C502.96,-161.09 624.47,-164.1 697.11,-165.89"/>
<polygon fill="none" stroke="black" points="696.74,-169.39 706.82,-166.14 696.91,-162.39 696.74,-169.39"/>
<text xml:space="preserve" text-anchor="middle" x="577.73" y="-168.67" font-family="Times,serif" font-size="14.00">isA</text>
</g>
<!-- MaterialBySize -->
<g id="node5" class="node">
<title>MaterialBySize</title>
<g id="a_node5"><a xlink:href="https://w3id.org/emmo#EMMO_e4e80813_f379_4091_b017_ee059811f806" xlink:title="MaterialBySize">
<ellipse fill="#ffffcc" stroke="red" cx="758.77" cy="-47.4" rx="88.04" ry="18"/>
<text xml:space="preserve" text-anchor="middle" x="758.77" y="-42.72" font-family="Times,serif" font-size="14.00">MaterialBySize</text>
</a>
</g>
</g>
<!-- BulkMagnet&#45;&gt;MaterialBySize -->
<g id="edge1" class="edge">
<title>BulkMagnet&#45;&gt;MaterialBySize</title>
<path fill="none" stroke="black" d="M419.06,-149.24C441.47,-144.02 465.71,-135.45 484.73,-121.4 496.71,-112.55 490.37,-101.44 502.73,-93.15 504.61,-91.89 604.98,-74.12 679.23,-61.1"/>
<polygon fill="none" stroke="black" points="679.7,-64.58 688.95,-59.4 678.5,-57.68 679.7,-64.58"/>
<text xml:space="preserve" text-anchor="middle" x="577.73" y="-97.1" font-family="Times,serif" font-size="14.00">isA</text>
</g>
<!-- ThinFilmMagnet -->
<g id="node2" class="node">
<title>ThinFilmMagnet</title>
<g id="a_node2"><a xlink:href="https://w3id.org/emmo/domain/magnetic-materials#MagMO_6f92a0d5-2eae-5ceb-83dc-2fef7c41a1dd" xlink:title="ThinFilmMagnet">
<ellipse fill="#ffffcc" stroke="black" cx="353.03" cy="-21.4" rx="94.35" ry="18"/>
<text xml:space="preserve" text-anchor="middle" x="353.03" y="-16.72" font-family="Times,serif" font-size="14.00">ThinFilmMagnet</text>
</a>
</g>
</g>
<!-- ThinFilmMagnet&#45;&gt;Magnet -->
<g id="edge7" class="edge">
<title>ThinFilmMagnet&#45;&gt;Magnet</title>
<path fill="none" stroke="black" d="M446.46,-24.56C527.61,-28.01 635.37,-34.52 652.73,-45.15 665.75,-53.12 661.47,-62.26 670.73,-74.4 689.47,-98.94 713.65,-124.37 731.77,-142.43"/>
<polygon fill="none" stroke="black" points="728.98,-144.58 738.55,-149.11 733.89,-139.6 728.98,-144.58"/>
<text xml:space="preserve" text-anchor="middle" x="577.73" y="-49.1" font-family="Times,serif" font-size="14.00">isA</text>
</g>
<!-- ThinFilmMagnet&#45;&gt;MaterialBySize -->
<g id="edge6" class="edge">
<title>ThinFilmMagnet&#45;&gt;MaterialBySize</title>
<path fill="none" stroke="black" d="M425.24,-9.42C486.13,-1.27 575.86,5.75 652.73,-8.15 672.82,-11.78 694.07,-19.02 712.16,-26.3"/>
<polygon fill="none" stroke="black" points="710.72,-29.49 721.3,-30.11 713.41,-23.03 710.72,-29.49"/>
<text xml:space="preserve" text-anchor="middle" x="577.73" y="-12.1" font-family="Times,serif" font-size="14.00">isA</text>
</g>
<!-- MultilayerMagnet -->
<g id="node3" class="node">
<title>MultilayerMagnet</title>
<g id="a_node3"><a xlink:href="https://w3id.org/emmo/domain/magnetic-materials#MagMO_4ee603fc-7a1e-51f0-bf75-8e66f9a5539b" xlink:title="MultilayerMagnet">
<ellipse fill="#ffffcc" stroke="black" cx="353.03" cy="-216.4" rx="101.71" ry="18"/>
<text xml:space="preserve" text-anchor="middle" x="353.03" y="-211.72" font-family="Times,serif" font-size="14.00">MultilayerMagnet</text>
</a>
</g>
</g>
<!-- MultilayerMagnet&#45;&gt;ThinFilmMagnet -->
<g id="edge11" class="edge">
<title>MultilayerMagnet&#45;&gt;ThinFilmMagnet</title>
<path fill="none" stroke="darkgreen" stroke-dasharray="5,2" d="M267,-206.55C174.4,-192.37 46.71,-160.2 96.97,-93.77 131.64,-47.94 193.08,-29.56 247.09,-22.78"/>
<polygon fill="darkgreen" stroke="darkgreen" points="247.44,-26.26 256.98,-21.67 246.66,-19.3 247.44,-26.26"/>
<text xml:space="preserve" text-anchor="middle" x="131.7" y="-97.72" font-family="Times,serif" font-size="14.00">hasSpatialTile some</text>
</g>
<!-- MultilayerMagnet&#45;&gt;Magnet -->
<g id="edge9" class="edge">
<title>MultilayerMagnet&#45;&gt;Magnet</title>
<path fill="none" stroke="black" d="M445.4,-208.5C504.63,-202.99 583.39,-194.93 652.73,-185.4 668.81,-183.19 686.2,-180.38 702.12,-177.64"/>
<polygon fill="none" stroke="black" points="702.67,-181.1 711.92,-175.93 701.46,-174.2 702.67,-181.1"/>
<text xml:space="preserve" text-anchor="middle" x="577.73" y="-206.55" font-family="Times,serif" font-size="14.00">isA</text>
</g>
<!-- SpatialTiling -->
<g id="node9" class="node">
<title>SpatialTiling</title>
<g id="a_node9"><a xlink:href="https://w3id.org/emmo#EMMO_8944581c_64da_46a9_be29_7074f7cc8098" xlink:title="SpatialTiling">
<ellipse fill="#ffffcc" stroke="red" cx="758.77" cy="-247.4" rx="74.88" ry="18"/>
<text xml:space="preserve" text-anchor="middle" x="758.77" y="-242.72" font-family="Times,serif" font-size="14.00">SpatialTiling</text>
</a>
</g>
</g>
<!-- MultilayerMagnet&#45;&gt;SpatialTiling -->
<g id="edge8" class="edge">
<title>MultilayerMagnet&#45;&gt;SpatialTiling</title>
<path fill="none" stroke="black" d="M447.16,-223.55C516.18,-228.85 609.36,-236 675.61,-241.09"/>
<polygon fill="none" stroke="black" points="675.08,-244.56 685.32,-241.83 675.62,-237.58 675.08,-244.56"/>
<text xml:space="preserve" text-anchor="middle" x="577.73" y="-243.03" font-family="Times,serif" font-size="14.00">isA</text>
</g>
<!-- SpacerLayer -->
<g id="node10" class="node">
<title>SpacerLayer</title>
<g id="a_node10"><a xlink:href="https://w3id.org/emmo/domain/magnetic-materials#MagMO_1b980f86-4116-5af8-bc45-14b44d88eeb5" xlink:title="SpacerLayer">
<ellipse fill="#ffffcc" stroke="red" cx="353.03" cy="-288.4" rx="74.36" ry="18"/>
<text xml:space="preserve" text-anchor="middle" x="353.03" y="-283.72" font-family="Times,serif" font-size="14.00">SpacerLayer</text>
</a>
</g>
</g>
<!-- MultilayerMagnet&#45;&gt;SpacerLayer -->
<g id="edge10" class="edge">
<title>MultilayerMagnet&#45;&gt;SpacerLayer</title>
<path fill="none" stroke="darkgreen" stroke-dasharray="5,2" d="M353.03,-234.57C353.03,-241.84 353.03,-250.42 353.03,-258.56"/>
<polygon fill="darkgreen" stroke="darkgreen" points="349.53,-258.47 353.03,-268.47 356.53,-258.47 349.53,-258.47"/>
<text xml:space="preserve" text-anchor="middle" x="341.41" y="-247.72" font-family="Times,serif" font-size="14.00">hasSpatialTile min 0</text>
</g>
<!-- Referent -->
<g id="node6" class="node">
<title>Referent</title>
<g id="a_node6"><a xlink:href="https://w3id.org/emmo#EMMO_6f5af708_f825_4feb_a0d1_a8d813d3022b" xlink:title="Referent">
<ellipse fill="#ffffcc" stroke="red" cx="1015.74" cy="-194.4" rx="54.89" ry="18"/>
<text xml:space="preserve" text-anchor="middle" x="1015.74" y="-189.72" font-family="Times,serif" font-size="14.00">Referent</text>
</a>
</g>
</g>
<!-- Magnet&#45;&gt;Referent -->
<g id="edge3" class="edge">
<title>Magnet&#45;&gt;Referent</title>
<path fill="none" stroke="black" d="M807.43,-172.44C848.13,-176.75 907.01,-182.99 951.63,-187.71"/>
<polygon fill="none" stroke="black" points="951.11,-191.18 961.43,-188.75 951.85,-184.22 951.11,-191.18"/>
<text xml:space="preserve" text-anchor="middle" x="875.68" y="-184.04" font-family="Times,serif" font-size="14.00">isA</text>
</g>
<!-- MaterialByFunction -->
<g id="node7" class="node">
<title>MaterialByFunction</title>
<g id="a_node7"><a xlink:href="https://w3id.org/emmo#EMMO_8820f251_ad36_43f4_a693_c0e86a89cc1f" xlink:title="MaterialByFunction">
<ellipse fill="#ffffcc" stroke="red" cx="1015.74" cy="-140.4" rx="111.18" ry="18"/>
<text xml:space="preserve" text-anchor="middle" x="1015.74" y="-135.72" font-family="Times,serif" font-size="14.00">MaterialByFunction</text>
</a>
</g>
</g>
<!-- Magnet&#45;&gt;MaterialByFunction -->
<g id="edge4" class="edge">
<title>Magnet&#45;&gt;MaterialByFunction</title>
<path fill="none" stroke="black" d="M807.43,-162.35C836.43,-159.28 874.65,-155.23 910.36,-151.45"/>
<polygon fill="none" stroke="black" points="910.27,-154.98 919.85,-150.45 909.53,-148.02 910.27,-154.98"/>
<text xml:space="preserve" text-anchor="middle" x="875.68" y="-159.46" font-family="Times,serif" font-size="14.00">isA</text>
</g>
<!-- GranularMicrostructure -->
<g id="node8" class="node">
<title>GranularMicrostructure</title>
<g id="a_node8"><a xlink:href="https://w3id.org/emmo/domain/magnetic-materials#MagMO_cf5261fe-bdab-5c7b-b6a8-f9a313687bc2" xlink:title="GranularMicrostructure">
<ellipse fill="#ffffcc" stroke="red" cx="353.03" cy="-94.4" rx="131.7" ry="18"/>
<text xml:space="preserve" text-anchor="middle" x="353.03" y="-89.72" font-family="Times,serif" font-size="14.00">GranularMicrostructure</text>
</a>
</g>
</g>
<!-- Magnet&#45;&gt;GranularMicrostructure -->
<g id="edge5" class="edge">
<title>Magnet&#45;&gt;GranularMicrostructure</title>
<path fill="none" stroke="darkgreen" d="M718.59,-156.22C698.93,-150.87 674.69,-144.66 652.73,-140.15 590.11,-127.26 519.41,-116.28 462.52,-108.3"/>
<polygon fill="darkgreen" stroke="darkgreen" points="463.22,-104.87 452.83,-106.96 462.26,-111.8 463.22,-104.87"/>
<text xml:space="preserve" text-anchor="middle" x="577.73" y="-144.1" font-family="Times,serif" font-size="14.00">hasSpatialPart min 0</text>
</g>
<!-- key1 -->
<g id="node11" class="node">
<title>key1</title>
<text xml:space="preserve" text-anchor="start" x="387.16" y="-377.97" font-family="Times,serif" font-weight="bold" font-size="14.00">isA</text>
<text xml:space="preserve" text-anchor="start" x="294.91" y="-356.72" font-family="Times,serif" font-weight="bold" font-size="14.00">hasSpatialPart</text>
<text xml:space="preserve" text-anchor="start" x="309.91" y="-334.47" font-family="Times,serif" font-size="14.00">hasSpatialTile</text>
</g>
<!-- key2 -->
<g id="node12" class="node">
<title>key2</title>
<text xml:space="preserve" text-anchor="start" x="756.52" y="-376.97" font-family="Times,serif" font-size="14.00"> </text>
<text xml:space="preserve" text-anchor="start" x="756.52" y="-355.72" font-family="Times,serif" font-size="14.00"> </text>
<text xml:space="preserve" text-anchor="start" x="756.52" y="-334.47" font-family="Times,serif" font-size="14.00"> </text>
</g>
<!-- key1&#45;&gt;key2 -->
<g id="edge12" class="edge">
<title>key1:e&#45;&gt;key2:w</title>
<path fill="none" stroke="black" d="M414.16,-381.65C561.15,-381.65 600.7,-381.65 742.25,-381.65"/>
<polygon fill="none" stroke="black" points="742.01,-385.15 752.01,-381.65 742.01,-378.15 742.01,-385.15"/>
</g>
<!-- key1&#45;&gt;key2 -->
<g id="edge13" class="edge">
<title>key1:e&#45;&gt;key2:w</title>
<path fill="none" stroke="darkgreen" d="M414.16,-360.4C561.15,-360.4 600.7,-360.4 742.25,-360.4"/>
<polygon fill="darkgreen" stroke="darkgreen" points="742.01,-363.9 752.01,-360.4 742.01,-356.9 742.01,-363.9"/>
</g>
<!-- key1&#45;&gt;key2 -->
<g id="edge14" class="edge">
<title>key1:e&#45;&gt;key2:w</title>
<path fill="none" stroke="darkgreen" stroke-dasharray="5,2" d="M414.16,-339.15C561.15,-339.15 600.7,-339.15 742.25,-339.15"/>
<polygon fill="darkgreen" stroke="darkgreen" points="742.01,-342.65 752.01,-339.15 742.01,-335.65 742.01,-342.65"/>
</g>
</g>
</svg>
